<?xml version="1.0" encoding="UTF-8" standalone="no"?>
<svg
   xmlns:dc="http://purl.org/dc/elements/1.1/"
   xmlns:cc="http://creativecommons.org/ns#"
   xmlns:rdf="http://www.w3.org/1999/02/22-rdf-syntax-ns#"
   xmlns:svg="http://www.w3.org/2000/svg"
   xmlns="http://www.w3.org/2000/svg"
   xmlns:sodipodi="http://sodipodi.sourceforge.net/DTD/sodipodi-0.dtd"
   xmlns:inkscape="http://www.inkscape.org/namespaces/inkscape"
   viewBox="0 0 500 500"
   version="1.1"
   id="svg680"
   sodipodi:docname="ilustracao2.svg"
   inkscape:version="1.0.1 (3bc2e813f5, 2020-09-07)">
  <metadata
     id="metadata686">
    <rdf:RDF>
      <cc:Work
         rdf:about="">
        <dc:format>image/svg+xml</dc:format>
        <dc:type
           rdf:resource="http://purl.org/dc/dcmitype/StillImage" />
        <dc:title></dc:title>
      </cc:Work>
    </rdf:RDF>
  </metadata>
  <defs
     id="defs684" />
  <sodipodi:namedview
     pagecolor="#ffffff"
     bordercolor="#666666"
     borderopacity="1"
     objecttolerance="10"
     gridtolerance="10"
     guidetolerance="10"
     inkscape:pageopacity="0"
     inkscape:pageshadow="2"
     inkscape:window-width="1280"
     inkscape:window-height="737"
     id="namedview682"
     showgrid="false"
     inkscape:zoom="0.7"
     inkscape:cx="250"
     inkscape:cy="239.50442"
     inkscape:window-x="-8"
     inkscape:window-y="-8"
     inkscape:window-maximized="1"
     inkscape:current-layer="svg680" />
  <g
     id="freepik--Floor--inject-26"
     transform="matrix(-0.9608019,0,0,1,478.4257,0)"
     style="stroke-width:1.0202">
    <path
       id="freepik--floor--inject-26"
       d="m 81.82,446.22 c -92.88,-53.63 -92.88,-140.58 0,-194.2 92.88,-53.62 243.48,-53.63 336.36,0 92.88,53.63 92.88,140.57 0,194.2 -92.88,53.63 -243.48,53.62 -336.36,0 z"
       style="fill:#f0f0f0;stroke-width:1.0202" />
  </g>
  <g
     id="freepik--Shadows--inject-26"
     transform="matrix(-0.9608019,0,0,1,478.4257,0)"
     style="stroke-width:1.0202">
    <path
       id="freepik--Shadow--inject-26"
       d="M 207.67,456.34 65.87,374.41 c -5.53,-3.2 -5.53,-8.42 0,-11.62 l 229.6,-132.66 a 9.23,9.23 0 0 1 8.29,0 L 449,314.08 a 4.38,4.38 0 0 1 0,7.59 L 216,456.34 a 9.23,9.23 0 0 1 -8.33,0 z"
       style="fill:#e0e0e0;stroke-width:1.0202" />
    <ellipse
       id="freepik--shadow--inject-26"
       cx="384.29001"
       cy="414.64001"
       rx="52.560001"
       ry="30.34"
       style="fill:#e0e0e0;stroke-width:1.0202" />
  </g>
  <g
     id="freepik--Plants--inject-26"
     transform="matrix(-0.98951766,0,0,1,494.20098,0)"
     style="stroke-width:1.00529">
    <g
       id="freepik--plants--inject-26"
       style="stroke-width:1.00529">
      <path
         d="m 80.51,326.81 c 0,0 -0.3,-21.35 -9.17,-38.78 -8.87,-17.43 -22.28,-29.09 -35.64,-31.49 -13.36,-2.4 -25.46,8.9 -11.9,18.84 13.56,9.94 38.28,21.16 46.89,54.14 z"
         style="fill:#407bff;stroke-width:1.00529"
         id="path425" />
      <path
         d="m 80.51,326.81 c 0,0 -0.3,-21.35 -9.17,-38.78 -8.87,-17.43 -22.28,-29.09 -35.64,-31.49 -13.36,-2.4 -25.46,8.9 -11.9,18.84 13.56,9.94 38.28,21.16 46.89,54.14 z"
         style="opacity:0.15;stroke-width:1.00529"
         id="path427" />
      <path
         d="m 77.11,320.93 a 0.35,0.35 0 0 0 0.14,0 0.71,0.71 0 0 0 0.49,-0.89 C 67.02,283.64 41.43,266.34 29.39,262.28 a 0.72,0.72 0 0 0 -0.46,1.36 c 11.79,4 36.87,21 47.43,56.8 a 0.71,0.71 0 0 0 0.75,0.49 z"
         style="fill:#ffffff;stroke-width:1.00529"
         id="path429" />
      <g
         id="freepik--Plant--inject-26"
         style="stroke-width:1.1632"
         transform="matrix(0.81388353,0,0,0.91772438,20.447429,32.713589)">
        <path
           d="m 81.86,347 c -5,2.85 -7.8,4.7 -16.89,5.46 a 48.11,48.11 0 0 1 -19.1,-2.59 c -1.69,-0.61 -4.3,-1.94 -2.83,-3.56 0.76,-0.84 9.68,-2.26 12.87,-6 A 58.85,58.85 0 0 1 43.4,342.53 16.33,16.33 0 0 1 32.55,339.2 c -2.95,-2.46 -4.54,-6.13 -6,-9.67 -0.51,-1.21 -1,-2.69 -0.21,-3.74 a 3.78,3.78 0 0 1 2.16,-1.15 l 10.13,-2.83 c 2.21,-0.47 0.65,-1.92 -0.18,-2.05 a 19.1,19.1 0 0 0 -3.68,-0.16 c -3.87,0.21 -8.14,0.94 -11.3,-1.31 A 9.45,9.45 0 0 1 20,312.39 c -0.16,-0.8 -0.83,-11.24 -0.37,-11.37 a 51.85,51.85 0 0 1 7.73,-1.34 c 2.45,-0.29 4.84,-0.4 7.28,-0.73 a 61,61 0 0 1 8.32,-0.54 5.1,5.1 0 0 1 2.74,0.54 4.42,4.42 0 0 1 1.68,3.37 15.87,15.87 0 0 0 0.52,3.84 c 1.18,-0.1 1.57,-1.65 1.54,-2.84 -0.03,-1.19 0,-2.68 1.07,-3.19 a 2.84,2.84 0 0 1 1.78,0 48.6,48.6 0 0 1 11,3.65 12.63,12.63 0 0 1 4.33,2.95 c 1.7,2 2.2,4.72 2.22,7.33 0.02,2.61 -0.39,5.2 -0.22,7.8 2,-1.82 4.87,-7.35 5.09,-10.07 4.38,2.81 7,8.62 7.79,16.55 a 80.28,80.28 0 0 1 -0.32,17.45 c -0.11,0.14 -0.18,1.07 -0.32,1.21 z"
           style="fill:#407bff;stroke-width:1.1632"
           id="path431" />
        <path
           d="m 81.86,347 c -5,2.85 -7.8,4.7 -16.89,5.46 a 48.11,48.11 0 0 1 -19.1,-2.59 c -1.69,-0.61 -4.3,-1.94 -2.83,-3.56 0.76,-0.84 9.68,-2.26 12.87,-6 A 58.85,58.85 0 0 1 43.4,342.53 16.33,16.33 0 0 1 32.55,339.2 c -2.95,-2.46 -4.54,-6.13 -6,-9.67 -0.51,-1.21 -1,-2.69 -0.21,-3.74 a 3.78,3.78 0 0 1 2.16,-1.15 l 10.13,-2.83 c 2.21,-0.47 0.65,-1.92 -0.18,-2.05 a 19.1,19.1 0 0 0 -3.68,-0.16 c -3.87,0.21 -8.14,0.94 -11.3,-1.31 A 9.45,9.45 0 0 1 20,312.39 c -0.16,-0.8 -0.83,-11.24 -0.37,-11.37 a 51.85,51.85 0 0 1 7.73,-1.34 c 2.45,-0.29 4.84,-0.4 7.28,-0.73 a 61,61 0 0 1 8.32,-0.54 5.1,5.1 0 0 1 2.74,0.54 4.42,4.42 0 0 1 1.68,3.37 15.87,15.87 0 0 0 0.52,3.84 c 1.18,-0.1 1.57,-1.65 1.54,-2.84 -0.03,-1.19 0,-2.68 1.07,-3.19 a 2.84,2.84 0 0 1 1.78,0 48.6,48.6 0 0 1 11,3.65 12.63,12.63 0 0 1 4.33,2.95 c 1.7,2 2.2,4.72 2.22,7.33 0.02,2.61 -0.39,5.2 -0.22,7.8 2,-1.82 4.87,-7.35 5.09,-10.07 4.38,2.81 7,8.62 7.79,16.55 a 80.28,80.28 0 0 1 -0.32,17.45 c -0.11,0.14 -0.18,1.07 -0.32,1.21 z"
           style="opacity:0.3;stroke-width:1.1632"
           id="path433" />
        <path
           d="m 81,346 a 0.61,0.61 0 0 1 -0.53,-0.32 C 66.28,318.44 34.9,306.96 27.27,305.38 a 0.60309618,0.60309618 0 0 1 0.25,-1.18 c 7.74,1.61 39.61,13.26 54,40.93 a 0.59,0.59 0 0 1 -0.25,0.8 A 0.55,0.55 0 0 1 81,346 Z"
           style="fill:#ffffff;stroke-width:1.1632"
           id="path435" />
        <path
           d="m 39.82,330.27 a 0.61,0.61 0 0 1 -0.6,-0.56 0.59,0.59 0 0 1 0.55,-0.64 c 15.66,-1.23 20.72,-7.36 20.77,-7.42 a 0.6,0.6 0 0 1 0.94,0.74 c -0.21,0.27 -5.37,6.6 -21.61,7.87 z"
           style="fill:#ffffff;stroke-width:1.1632"
           id="path437" />
      </g>
    </g>
    <g
       id="g453"
       style="stroke-width:1.00529">
      <path
         d="m 460,254.3 c -6.94,7.59 -19.67,20.08 -27.07,32.14 a 0.41,0.41 0 0 0 -0.05,0.09 c -2.89,4.73 -5,9.39 -5.53,13.66 l -0.52,7.71 -3.17,-1.83 -0.53,-0.31 -1.31,-0.75 v 0 a 6.27,6.27 0 0 1 -3.12,-5.25 c -0.51,-18.8 4.52,-34.78 9.38,-44.45 6.65,-13.21 19.11,-26.68 29.94,-25.36 10.11,1.23 11.7,13.77 1.98,24.35 z"
         style="fill:#407bff;stroke-width:1.00529"
         id="path441" />
      <path
         d="m 460,254.3 c -6.94,7.59 -19.67,20.08 -27.07,32.14 a 0.41,0.41 0 0 0 -0.05,0.09 c -2.89,4.73 -5,9.39 -5.53,13.66 l -0.52,7.71 -3.17,-1.83 -0.53,-0.31 -1.31,-0.75 v 0 a 6.27,6.27 0 0 1 -3.12,-5.25 c -0.51,-18.8 4.52,-34.78 9.38,-44.45 6.65,-13.21 19.11,-26.68 29.94,-25.36 10.11,1.23 11.7,13.77 1.98,24.35 z"
         style="opacity:0.15;stroke-width:1.00529"
         id="path443" />
      <path
         d="m 454.93,237.24 c -13.26,8.38 -32.19,37.59 -31.76,68.52 l -1.31,-0.75 c -0.11,-31.12 19,-60.4 32.37,-68.87 a 0.65192024,0.65192024 0 0 1 0.7,1.1 z"
         style="fill:#ffffff;stroke-width:1.00529"
         id="path445" />
      <path
         d="m 467.9,279.08 c -2.31,6.27 -15.49,11.71 -25.22,20.76 a 63.17,63.17 0 0 0 -6.68,7.25 6.12,6.12 0 0 1 -7.89,1.52 v 0 l -1.16,-0.67 h -0.08 l -3.17,-1.83 a 64,64 0 0 1 9.22,-19.54 0.41,0.41 0 0 1 0.05,-0.09 c 6.44,-9.34 14.39,-16.09 19.94,-17.62 10.91,-3.04 17.76,2.69 14.99,10.22 z"
         style="fill:#407bff;stroke-width:1.00529"
         id="path447" />
      <path
         d="m 467.9,279.08 c -2.31,6.27 -15.49,11.71 -25.22,20.76 a 63.17,63.17 0 0 0 -6.68,7.25 6.12,6.12 0 0 1 -7.89,1.52 v 0 l -1.16,-0.67 h -0.08 l -3.17,-1.83 a 64,64 0 0 1 9.22,-19.54 0.41,0.41 0 0 1 0.05,-0.09 c 6.44,-9.34 14.39,-16.09 19.94,-17.62 10.91,-3.04 17.76,2.69 14.99,10.22 z"
         style="opacity:0.3;stroke-width:1.00529"
         id="path449" />
      <path
         d="m 458.63,275.31 c -8,2.25 -23.41,12 -30.52,33.3 l -1.16,-0.67 c 7.21,-21.59 22.56,-31.41 31.33,-33.88 a 0.65,0.65 0 1 1 0.35,1.25 z"
         style="fill:#ffffff;stroke-width:1.00529"
         id="path451" />
    </g>
  </g>
  <g
     id="freepik--Device--inject-26"
     transform="matrix(-0.9608019,0,0,1,478.65629,-5.32)"
     style="stroke-width:1.0202">
    <g
       id="freepik--Laptop--inject-26"
       style="stroke-width:1.0202">
      <path
         d="m 73.1,359.31 c 0,3.47 2.6,7.78 5.8,9.63 l 126.29,72.93 a 12.82,12.82 0 0 0 11.6,0 L 439.16,313.48 c 3.21,-1.85 5.8,-6.16 5.8,-9.63 0,-3.47 -2.59,-7.79 -5.8,-9.64 L 312.88,221.29 a 12.82,12.82 0 0 0 -11.6,0 L 78.9,349.68 c -3.2,1.85 -5.8,6.16 -5.8,9.63 z"
         style="fill:#455a64;stroke-width:1.0202"
         id="path456" />
      <path
         d="m 445,303.85 c 0,3.47 -2.6,7.77 -5.8,9.63 L 216.79,441.87 a 12,12 0 0 1 -5.8,1.38 v -12.56 a 12,12 0 0 0 5.8,-1.39 L 439.17,300.91 c 2.8,-1.61 3.15,-4.12 1.05,-6 2.69,2.14 4.78,5.86 4.78,8.94 z"
         style="fill:#37474f;stroke-width:1.0202"
         id="path458" />
      <path
         d="m 211,430.7 v 12.55 a 11.87,11.87 0 0 1 -5.8,-1.38 L 78.9,368.94 c -3.2,-1.85 -5.8,-6.16 -5.8,-9.63 0,-3.26 2.29,-7.25 5.21,-9.26 -2.6,1.86 -2.4,4.6 0.59,6.33 l 126.29,72.93 a 11.87,11.87 0 0 0 5.81,1.39 z"
         style="fill:#263238;stroke-width:1.0202"
         id="path460" />
      <path
         d="m 67.66,349.88 c -2.84,-2 -2.84,-4.66 -2.84,-8.36 V 154.64 a 12.79,12.79 0 0 1 5.8,-10 L 293,16.21 c 3.21,-1.85 6.16,-0.51 9.17,1.22 3.01,1.73 4.92,3.24 4.92,6.93 v 186.88 a 12.84,12.84 0 0 1 -5.8,10 L 78.9,349.68 c -4.85,3.32 -8.16,2.38 -11.24,0.2 z"
         style="fill:#37474f;stroke-width:1.0202"
         id="path462" />
      <path
         d="m 78.9,349.68 c -4.85,3.26 -8.16,2.38 -11.24,0.2 -2.83,-2 -2.84,-4.66 -2.84,-8.36 V 154.65 a 11.87,11.87 0 0 1 1.69,-5.71 l 8.28,4.81 a 11.75,11.75 0 0 0 -1.69,5.7 v 186.88 c 0,3.67 2.59,5.19 5.8,3.35 z"
         style="fill:#263238;stroke-width:1.0202"
         id="path464" />
      <path
         d="m 307.08,24.36 c 0,-3.69 -2.6,-5.19 -5.8,-3.35 L 78.9,149.41 a 11.66,11.66 0 0 0 -4.1,4.33 l -8.28,-4.81 v 0 a 12,12 0 0 1 4.11,-4.34 L 293,16.21 c 3.2,-1.85 6.16,-0.51 9.16,1.22 3,1.73 4.92,3.24 4.92,6.93 z"
         style="fill:#455a64;stroke-width:1.0202"
         id="path466" />
      <path
         d="M 82,156.1 296.42,32.34 c 1.92,-1.11 3.48,-0.21 3.48,2 v 171.42 a 7.7,7.7 0 0 1 -3.48,6 L 82,335.54 c -1.92,1.11 -3.48,0.21 -3.48,-2 V 162.12 A 7.68,7.68 0 0 1 82,156.1 Z"
         style="fill:#263238;stroke-width:1.0202"
         id="path468" />
      <path
         d="m 82,156.1 a 7.68,7.68 0 0 0 -3.48,6 v 170.39 l 213.14,-123 a 7.7,7.7 0 0 0 3.48,-6 V 33.07 Z"
         style="fill:#407bff;stroke-width:1.0202"
         id="path470" />
      <path
         d="m 82,156.1 a 7.68,7.68 0 0 0 -3.48,6 v 170.39 l 213.14,-123 a 7.7,7.7 0 0 0 3.48,-6 V 33.07 Z"
         style="opacity:0.65;fill:#ffffff;stroke-width:1.0202"
         id="path472" />
      <path
         d="M 95,350 301.37,230.85 a 6.38,6.38 0 0 1 5.8,0 l 6,3.15 c 1.6,0.93 1.6,2.43 0,3.35 L 106.73,356.5 a 6.38,6.38 0 0 1 -5.8,0 l -6,-3.13 C 93.35,352.44 93.35,350.94 95,350 Z"
         style="fill:#37474f;stroke-width:1.0202"
         id="path474" />
      <path
         d="M 111.14,359.65 317.55,240.47 a 6,6 0 0 1 5.3,-0.29 l 53.73,31 c 1.32,0.77 1.1,2.14 -0.5,3.06 l -206.17,119 a 5.94,5.94 0 0 1 -5.31,0.3 L 110.65,362.7 c -1.33,-0.76 -1.11,-2.13 0.49,-3.05 z"
         style="fill:#263238;stroke-width:1.0202"
         id="path476" />
      <path
         d="m 288.3,290 6.46,-3.73 c 0.27,-0.16 0.31,-0.39 0.09,-0.52 l -5.7,-3.3 a 1,1 0 0 0 -0.91,0.06 l -6.46,3.73 c -0.27,0.16 -0.31,0.39 -0.09,0.52 l 5.7,3.29 A 1,1 0 0 0 288.3,290 Z m -9,-12.67 -6.47,3.73 c -0.27,0.16 -0.31,0.39 -0.09,0.52 l 5.71,3.29 a 1,1 0 0 0 0.9,-0.05 l 6.46,-3.73 c 0.28,-0.16 0.32,-0.39 0.09,-0.52 l -5.7,-3.29 a 1,1 0 0 0 -0.92,0.09 z m -20.9,12.1 -10.94,6.31 c -0.27,0.16 -0.31,0.39 -0.09,0.52 l 5.7,3.29 a 1,1 0 0 0 0.91,-0.05 l 10.93,-6.31 c 0.28,-0.16 0.32,-0.4 0.09,-0.53 l -5.7,-3.29 a 1,1 0 0 0 -0.9,0.06 z m 11.43,-6.61 -6.46,3.73 c -0.28,0.16 -0.32,0.4 -0.09,0.53 l 5.7,3.29 a 1,1 0 0 0 0.9,-0.05 l 6.47,-3.73 c 0.27,-0.16 0.31,-0.4 0.09,-0.53 l -5.7,-3.29 a 1,1 0 0 0 -0.91,0.05 z m -25.35,14.64 -6.48,3.73 c -0.28,0.16 -0.32,0.4 -0.1,0.52 l 5.71,3.3 a 1,1 0 0 0 0.9,-0.06 l 6.46,-3.73 c 0.28,-0.16 0.32,-0.39 0.09,-0.52 l -5.7,-3.29 a 1,1 0 0 0 -0.88,0.05 z m -9.48,5.46 -6.46,3.73 c -0.28,0.15 -0.32,0.39 -0.09,0.52 l 5.7,3.29 a 1,1 0 0 0 0.9,0 l 6.47,-3.73 c 0.27,-0.16 0.31,-0.4 0.09,-0.53 l -5.7,-3.29 a 1,1 0 0 0 -0.91,0.01 z m 24,14.4 6.46,-3.74 c 0.28,-0.15 0.32,-0.39 0.09,-0.52 l -5.7,-3.29 a 1,1 0 0 0 -0.9,0.05 l -6.46,3.73 c -0.28,0.16 -0.32,0.4 -0.09,0.53 l 5.7,3.29 a 1,1 0 0 0 0.9,-0.05 z m -9.44,5.45 L 256,319 c 0.27,-0.16 0.31,-0.39 0.09,-0.52 l -5.7,-3.29 a 1,1 0 0 0 -0.91,0 L 243,319 c -0.27,0.16 -0.31,0.39 -0.09,0.52 l 5.7,3.29 a 1,1 0 0 0 0.93,-0.04 z m -9.45,5.45 6.46,-3.73 c 0.28,-0.16 0.32,-0.39 0.09,-0.52 l -5.7,-3.29 a 1,1 0 0 0 -0.9,0.05 l -6.47,3.73 c -0.27,0.16 -0.31,0.39 -0.08,0.52 l 5.7,3.29 a 1,1 0 0 0 0.88,-0.05 z m -9.45,5.46 6.47,-3.73 c 0.27,-0.16 0.31,-0.4 0.09,-0.53 l -5.7,-3.29 a 1,1 0 0 0 -0.91,0.05 l -6.46,3.73 c -0.28,0.16 -0.32,0.4 -0.09,0.53 l 5.7,3.29 a 1,1 0 0 0 0.88,-0.05 z m 48.21,-38.19 6.46,-3.73 c 0.28,-0.16 0.32,-0.39 0.09,-0.52 L 279.7,288 a 1,1 0 0 0 -0.9,0.05 l -6.47,3.73 c -0.27,0.16 -0.31,0.39 -0.09,0.52 l 5.7,3.29 a 1,1 0 0 0 0.91,-0.1 z m -10.42,16.37 14.41,-8.32 c 0.28,-0.16 0.32,-0.39 0.09,-0.52 l -14.66,-8.47 a 1,1 0 0 0 -0.91,0.05 l -7.45,4.31 c -0.28,0.16 -0.32,0.39 -0.09,0.52 l 8.15,4.7 c 0.22,0.13 0.18,0.37 -0.09,0.53 l -6,3.44 c -0.27,0.16 -0.31,0.39 -0.09,0.52 l 5.7,3.29 a 1,1 0 0 0 0.92,-0.05 z m -42.84,-3.49 -6.47,3.73 c -0.27,0.16 -0.31,0.39 -0.09,0.52 l 5.7,3.29 a 1,1 0 0 0 0.91,-0.05 l 6.46,-3.73 c 0.28,-0.16 0.32,-0.39 0.09,-0.52 l -5.7,-3.29 a 1,1 0 0 0 -0.92,0.05 z m -9.45,5.45 -6.46,3.73 c -0.28,0.16 -0.32,0.4 -0.09,0.53 l 5.7,3.29 a 1,1 0 0 0 0.9,-0.06 l 6.47,-3.73 c 0.27,-0.15 0.31,-0.39 0.09,-0.52 L 217,313.77 a 1,1 0 0 0 -0.86,0.05 z m -52.54,58.08 a 1,1 0 0 0 0.9,0 l 6.47,-3.73 c 0.27,-0.16 0.31,-0.39 0.09,-0.52 l -5.7,-3.29 a 1,1 0 0 0 -0.91,0.05 l -6.47,3.68 c -0.27,0.16 -0.31,0.39 -0.09,0.52 z m -23,-14.45 -6.47,3.73 c -0.27,0.16 -0.31,0.39 -0.09,0.52 l 5.7,3.29 a 1,1 0 0 0 0.91,-0.05 l 6.46,-3.73 c 0.28,-0.16 0.32,-0.39 0.09,-0.52 l -5.7,-3.29 a 1,1 0 0 0 -0.94,0.05 z m 11.59,10.71 a 1,1 0 0 0 0.9,-0.05 l 6.47,-3.73 c 0.27,-0.16 0.31,-0.39 0.09,-0.52 l -5.7,-3.3 a 1,1 0 0 0 -0.91,0.06 l -6.46,3.73 c -0.28,0.16 -0.32,0.39 -0.09,0.52 z m 26.29,6 6.46,-3.73 c 0.28,-0.16 0.32,-0.4 0.09,-0.53 l -5.7,-3.29 a 1,1 0 0 0 -0.9,0.05 L 172,370.4 c -0.28,0.15 -0.32,0.39 -0.09,0.52 l 5.7,3.29 a 1,1 0 0 0 0.85,-0.05 z m -10.35,5.5 a 1,1 0 0 0 0.91,-0.05 l 6.46,-3.73 c 0.27,-0.16 0.31,-0.39 0.09,-0.52 l -5.7,-3.29 a 1,1 0 0 0 -0.91,0.05 l -6.46,3.73 c -0.27,0.16 -0.31,0.39 -0.09,0.52 z M 150,352 l -6.46,3.73 c -0.28,0.16 -0.32,0.39 -0.09,0.52 l 5.7,3.29 a 1,1 0 0 0 0.9,-0.05 l 6.47,-3.73 c 0.27,-0.16 0.31,-0.39 0.09,-0.52 l -5.7,-3.3 A 1,1 0 0 0 150,352 Z m 47.23,-27.27 -6.46,3.73 c -0.28,0.16 -0.32,0.39 -0.09,0.52 l 5.7,3.29 a 1,1 0 0 0 0.9,0 l 6.46,-3.73 c 0.28,-0.16 0.32,-0.39 0.09,-0.52 l -5.7,-3.29 a 1,1 0 0 0 -0.88,0 z m -37.78,21.81 -6.45,3.73 c -0.27,0.16 -0.31,0.4 -0.09,0.53 l 5.7,3.29 a 1,1 0 0 0 0.91,0 L 166,350.3 c 0.28,-0.15 0.32,-0.39 0.09,-0.52 l -5.7,-3.29 a 1,1 0 0 0 -0.92,0.05 z m 47.22,-27.26 -6.44,3.72 c -0.27,0.15 -0.31,0.39 -0.09,0.52 l 5.7,3.29 a 1,1 0 0 0 0.91,-0.05 l 6.46,-3.73 c 0.27,-0.16 0.31,-0.4 0.09,-0.53 l -5.7,-3.29 a 1,1 0 0 0 -0.91,0.07 z m -18.89,10.9 -6.46,3.73 c -0.27,0.16 -0.31,0.4 -0.09,0.53 l 5.7,3.29 a 1,1 0 0 0 0.91,-0.06 l 6.46,-3.73 c 0.27,-0.15 0.31,-0.39 0.09,-0.52 l -5.7,-3.29 a 1,1 0 0 0 -0.89,0.05 z m -9.44,5.46 -6.46,3.73 c -0.28,0.16 -0.32,0.39 -0.09,0.52 l 5.7,3.29 a 1,1 0 0 0 0.9,-0.05 l 6.46,-3.73 c 0.28,-0.16 0.32,-0.4 0.09,-0.52 l -5.7,-3.3 a 1,1 0 0 0 -0.88,0.06 z m -9.45,5.45 -6.46,3.73 c -0.27,0.16 -0.31,0.39 -0.09,0.52 l 5.7,3.29 a 1,1 0 0 0 0.91,-0.05 l 6.46,-3.73 c 0.27,-0.16 0.31,-0.39 0.09,-0.52 l -5.7,-3.29 a 1,1 0 0 0 -0.89,0.05 z m 42.84,3.49 6.47,-3.73 c 0.27,-0.16 0.31,-0.39 0.09,-0.52 L 212.6,337 a 1,1 0 0 0 -0.9,0 l -6.46,3.73 c -0.28,0.16 -0.32,0.39 -0.09,0.52 l 5.7,3.3 a 1,1 0 0 0 0.9,0.03 z m 88.41,-79.27 -6.47,3.74 c -0.27,0.15 -0.31,0.39 -0.09,0.52 l 5.71,3.29 a 1,1 0 0 0 0.9,-0.05 l 6.46,-3.73 c 0.28,-0.16 0.32,-0.4 0.09,-0.53 l -5.7,-3.29 a 1,1 0 0 0 -0.88,0.05 z m -11.44,6.61 -6.46,3.73 c -0.27,0.16 -0.31,0.39 -0.09,0.52 l 5.7,3.29 a 1,1 0 0 0 0.9,0 l 6.47,-3.73 c 0.27,-0.16 0.31,-0.39 0.09,-0.52 l -5.7,-3.3 a 1,1 0 0 0 -0.89,0.01 z m 20.88,-12.06 -6.46,3.73 c -0.27,0.16 -0.31,0.4 -0.09,0.53 l 5.7,3.29 a 1,1 0 0 0 0.9,-0.06 l 6.47,-3.73 c 0.27,-0.16 0.31,-0.39 0.09,-0.52 l -5.7,-3.29 a 1,1 0 0 0 -0.89,0.05 z m -52.58,48.26 6.46,-3.73 c 0.27,-0.16 0.31,-0.39 0.09,-0.52 l -5.7,-3.29 a 1,1 0 0 0 -0.91,0.05 l -6.46,3.73 c -0.27,0.16 -0.31,0.39 -0.09,0.52 l 5.7,3.29 a 1,1 0 0 0 0.91,-0.05 z m 63,-53.76 a 1,1 0 0 0 -0.9,0 l -6.46,3.73 c -0.28,0.16 -0.32,0.39 -0.09,0.52 l 5.7,3.29 a 1,1 0 0 0 0.9,-0.05 l 6.46,-3.73 c 0.28,-0.16 0.32,-0.39 0.09,-0.52 z m -98.8,84.77 6.46,-3.73 c 0.28,-0.16 0.32,-0.39 0.09,-0.52 l -5.7,-3.29 a 1,1 0 0 0 -0.9,0.05 l -6.47,3.73 c -0.27,0.16 -0.31,0.39 -0.09,0.52 l 5.7,3.29 a 1,1 0 0 0 0.91,-0.05 z m 115.8,-66.88 6.46,-3.73 c 0.28,-0.16 0.32,-0.39 0.09,-0.52 l -5.7,-3.29 a 1,1 0 0 0 -0.9,0.05 l -6.46,3.73 c -0.28,0.16 -0.32,0.39 -0.09,0.52 l 5.7,3.3 a 1,1 0 0 0 0.9,-0.06 z m -18.41,0.28 6.46,-3.73 c 0.28,-0.16 0.32,-0.39 0.09,-0.52 l -5.7,-3.29 a 1,1 0 0 0 -0.9,0.05 l -6.46,3.73 c -0.28,0.16 -0.32,0.39 -0.09,0.52 l 5.7,3.29 a 1,1 0 0 0 0.93,-0.05 z m 10.3,-13 a 1,1 0 0 0 -0.91,0.05 l -6.46,3.74 c -0.27,0.15 -0.31,0.39 -0.09,0.52 l 5.7,3.29 a 1,1 0 0 0 0.91,-0.05 l 6.46,-3.73 c 0.27,-0.16 0.31,-0.4 0.09,-0.53 z m 2,-1.15 14.66,8.47 a 1,1 0 0 0 0.91,-0.05 l 6.46,-3.73 c 0.27,-0.16 0.31,-0.39 0.09,-0.52 l -14.67,-8.47 a 1,1 0 0 0 -0.9,0 l -6.44,3.78 c -0.28,0.14 -0.32,0.39 -0.09,0.52 z m -21.79,12.11 -6.46,3.73 c -0.27,0.16 -0.32,0.39 -0.09,0.52 l 5.7,3.3 a 1,1 0 0 0 0.91,-0.06 l 6.46,-3.73 c 0.27,-0.16 0.31,-0.39 0.09,-0.52 l -5.7,-3.29 a 1,1 0 0 0 -0.89,0.05 z m -71.1,41.05 -6.46,3.73 c -0.28,0.16 -0.32,0.39 -0.09,0.52 l 5.7,3.29 a 1,1 0 0 0 0.9,-0.05 l 6.47,-3.73 c 0.27,-0.16 0.31,-0.4 0.09,-0.52 l -5.7,-3.3 a 1,1 0 0 0 -0.91,0.06 z m 88.65,-33.78 a 1,1 0 0 0 0.91,-0.05 l 6.46,-3.73 c 0.27,-0.16 0.31,-0.4 0.09,-0.53 l -5.7,-3.29 a 1,1 0 0 0 -0.91,0 l -6.43,3.84 c -0.27,0.15 -0.31,0.39 -0.09,0.52 z m -79.2,28.32 -6.45,3.73 c -0.27,0.16 -0.31,0.4 -0.08,0.53 l 5.7,3.29 a 1,1 0 0 0 0.9,-0.05 l 6.46,-3.74 c 0.28,-0.15 0.32,-0.39 0.09,-0.52 l -5.7,-3.29 a 1,1 0 0 0 -0.89,0.05 z m -74.41,60.37 a 1,1 0 0 0 0.9,-0.05 l 6.46,-3.73 c 0.28,-0.16 0.32,-0.4 0.09,-0.53 l -5.7,-3.29 a 1,1 0 0 0 -0.9,0 l -6.46,3.74 c -0.28,0.15 -0.32,0.39 -0.09,0.52 z m -10.6,-11.29 -6.44,3.73 c -0.27,0.16 -0.31,0.4 -0.09,0.53 l 5.7,3.29 a 1,1 0 0 0 0.91,0 l 6.46,-3.74 c 0.28,-0.15 0.32,-0.39 0.09,-0.52 l -5.7,-3.29 a 1,1 0 0 0 -0.9,0 z m 20.95,5.78 6.46,-3.73 c 0.27,-0.16 0.31,-0.39 0.09,-0.52 l -5.7,-3.29 a 1,1 0 0 0 -0.91,0.05 l -6.46,3.73 c -0.27,0.16 -0.31,0.39 -0.09,0.52 l 5.7,3.3 a 1,1 0 0 0 0.94,-0.06 z m 9.44,-5.45 6.46,-3.73 c 0.28,-0.16 0.32,-0.39 0.09,-0.52 l -5.7,-3.29 a 1,1 0 0 0 -0.9,0.05 l -6.46,3.73 c -0.28,0.16 -0.32,0.39 -0.09,0.52 l 5.7,3.29 a 1,1 0 0 0 0.93,-0.05 z m 9.45,-5.45 6.46,-3.73 c 0.27,-0.16 0.31,-0.4 0.09,-0.53 l -5.7,-3.29 a 1,1 0 0 0 -0.91,0.05 l -6.46,3.74 c -0.27,0.15 -0.31,0.39 -0.09,0.52 l 5.7,3.29 a 1,1 0 0 0 0.94,-0.09 z m -30.4,-0.33 -6.46,3.73 c -0.27,0.16 -0.31,0.39 -0.09,0.52 l 5.7,3.29 a 1,1 0 0 0 0.91,-0.05 l 6.46,-3.73 c 0.27,-0.16 0.31,-0.39 0.09,-0.52 l -5.7,-3.29 a 1,1 0 0 0 -0.88,0.05 z m 9.45,-5.45 -6.43,3.74 c -0.28,0.16 -0.32,0.39 -0.09,0.52 l 5.7,3.29 a 1,1 0 0 0 0.9,-0.05 l 6.46,-3.73 c 0.28,-0.16 0.32,-0.39 0.09,-0.52 l -5.7,-3.3 a 1,1 0 0 0 -0.9,0.05 z m 37.78,-21.82 -6.46,3.73 c -0.28,0.16 -0.32,0.4 -0.09,0.53 l 5.7,3.29 a 1,1 0 0 0 0.9,-0.05 l 6.47,-3.74 c 0.27,-0.15 0.31,-0.39 0.09,-0.52 L 220,322.39 a 1,1 0 0 0 -0.86,0.05 z m -9.45,5.46 -6.46,3.73 c -0.27,0.16 -0.31,0.39 -0.09,0.52 l 5.7,3.29 a 1,1 0 0 0 0.91,-0.05 l 6.46,-3.73 c 0.27,-0.16 0.32,-0.39 0.09,-0.52 l -5.7,-3.3 a 1,1 0 0 0 -0.88,0.06 z m 18.93,-10.9 -6.47,3.73 c -0.27,0.16 -0.31,0.39 -0.09,0.52 l 5.7,3.29 a 1,1 0 0 0 0.91,0 l 6.46,-3.73 c 0.28,-0.16 0.32,-0.39 0.09,-0.52 l -5.7,-3.29 a 1,1 0 0 0 -0.9,0 z m -37.79,21.8 -6.46,3.73 c -0.27,0.16 -0.31,0.4 -0.09,0.53 l 5.7,3.29 a 1,1 0 0 0 0.91,-0.05 l 6.46,-3.74 c 0.27,-0.15 0.31,-0.39 0.09,-0.52 l -5.7,-3.29 a 1,1 0 0 0 -0.91,0.05 z m 9.45,-5.45 -6.46,3.73 c -0.28,0.16 -0.32,0.39 -0.09,0.52 l 5.7,3.29 a 1,1 0 0 0 0.9,-0.05 l 6.46,-3.73 c 0.28,-0.16 0.32,-0.39 0.09,-0.52 l -5.7,-3.29 a 1,1 0 0 0 -0.9,0.05 z m -12.34,35.35 6.46,-3.73 c 0.27,-0.16 0.31,-0.39 0.09,-0.52 l -5.7,-3.29 a 1,1 0 0 0 -0.91,0 l -6.46,3.73 c -0.27,0.16 -0.31,0.39 -0.09,0.52 l 5.7,3.3 a 1.05,1.05 0 0 0 0.91,-0.01 z m -50.17,-2.56 -5.74,-3.29 a 1,1 0 0 0 -0.9,0 l -6.46,3.73 c -0.28,0.16 -0.32,0.4 -0.09,0.53 l 5.7,3.29 a 1,1 0 0 0 0.9,-0.05 l 6.47,-3.74 c 0.3,-0.1 0.38,-0.34 0.12,-0.47 z m 12.44,3.17 -5.7,-3.29 a 1,1 0 0 0 -0.9,0.05 l -10,5.74 c -0.27,0.16 -0.31,0.39 -0.09,0.52 l 5.7,3.29 a 1,1 0 0 0 0.91,-0.05 l 9.94,-5.74 c 0.33,-0.16 0.37,-0.39 0.14,-0.52 z m -20.84,-9.74 -5.7,-3.29 a 1,1 0 0 0 -0.9,0.06 l -8,4.59 c -0.27,0.16 -0.31,0.39 -0.09,0.52 l 5.7,3.29 a 1,1 0 0 0 0.91,-0.05 l 8,-4.59 c 0.27,-0.16 0.31,-0.4 0.08,-0.53 z m 6.1,-3.52 a 1,1 0 0 0 0.9,-0.05 l 6.47,-3.73 c 0.27,-0.16 0.31,-0.39 0.09,-0.52 l -5.7,-3.29 a 1,1 0 0 0 -0.91,0.05 l -6.46,3.73 c -0.28,0.16 -0.32,0.39 -0.09,0.52 z m 26.19,17 -5.7,-3.29 a 1,1 0 0 0 -0.9,0.05 L 142.6,377 c -0.28,0.16 -0.32,0.39 -0.09,0.52 l 5.7,3.29 a 1,1 0 0 0 0.9,-0.05 l 12.43,-7.18 c 0.28,-0.17 0.32,-0.4 0.09,-0.53 z m 4.49,7.76 -5.7,-3.29 a 1,1 0 0 0 -0.9,0.05 l -8,4.59 c -0.27,0.16 -0.31,0.4 -0.09,0.53 l 5.7,3.29 a 1,1 0 0 0 0.91,-0.06 l 7.95,-4.59 c 0.32,-0.16 0.36,-0.39 0.13,-0.52 z m 39.55,-65.3 a 1,1 0 0 0 0.9,-0.05 l 6.47,-3.74 c 0.27,-0.15 0.31,-0.39 0.09,-0.52 l -5.7,-3.29 a 1,1 0 0 0 -0.91,0 l -6.46,3.73 c -0.28,0.16 -0.32,0.4 -0.09,0.53 z m -18.89,10.9 a 1,1 0 0 0 0.9,-0.05 l 6.47,-3.73 c 0.27,-0.16 0.31,-0.39 0.09,-0.52 l -5.71,-3.29 a 1,1 0 0 0 -0.9,0.05 l -6.46,3.73 c -0.28,0.16 -0.32,0.39 -0.09,0.52 z m -41.89,24.19 a 1,1 0 0 0 0.9,-0.05 l 6.46,-3.73 c 0.28,-0.16 0.32,-0.4 0.09,-0.52 l -5.7,-3.3 a 1,1 0 0 0 -0.9,0.06 l -6.46,3.73 c -0.28,0.16 -0.32,0.39 -0.09,0.52 z M 196.22,321 a 1,1 0 0 0 0.91,0 l 6.46,-3.73 c 0.28,-0.16 0.32,-0.4 0.09,-0.53 l -5.7,-3.29 a 1,1 0 0 0 -0.9,0.06 l -6.47,3.73 c -0.27,0.16 -0.31,0.39 -0.09,0.52 z m -18.89,10.91 a 1,1 0 0 0 0.91,-0.05 l 6.46,-3.74 c 0.27,-0.15 0.31,-0.39 0.09,-0.52 l -5.7,-3.29 a 1,1 0 0 0 -0.91,0.05 l -6.46,3.73 c -0.27,0.16 -0.31,0.4 -0.09,0.53 z m -6,49.68 a 1,1 0 0 0 -0.91,0.05 l -9.94,5.74 c -0.28,0.16 -0.32,0.39 -0.09,0.52 l 5.7,3.29 a 1,1 0 0 0 0.9,0 l 10,-5.74 c 0.27,-0.16 0.31,-0.39 0.09,-0.52 z m -7.6,-41.86 a 1,1 0 0 0 0.9,-0.05 l 6.46,-3.73 c 0.28,-0.16 0.32,-0.39 0.09,-0.52 l -5.7,-3.29 a 1,1 0 0 0 -0.9,0 l -6.46,3.73 c -0.28,0.16 -0.32,0.39 -0.09,0.52 z m -9.45,5.46 a 1,1 0 0 0 0.91,0 l 6.46,-3.74 c 0.27,-0.15 0.31,-0.39 0.09,-0.52 l -5.7,-3.29 a 1,1 0 0 0 -0.91,0.05 l -6.46,3.73 c -0.27,0.16 -0.31,0.4 -0.09,0.53 z m 192,-64.64 a 1.05,1.05 0 0 0 -0.91,0.06 l -15.9,9.18 c -0.28,0.16 -0.32,0.39 -0.09,0.52 l 5.7,3.29 a 1,1 0 0 0 0.9,-0.05 L 352,284.33 c 0.27,-0.16 0.32,-0.39 0.09,-0.52 z m -20.88,12.06 a 1,1 0 0 0 -0.9,0.05 l -6.47,3.73 c -0.27,0.16 -0.31,0.4 -0.09,0.53 l 5.7,3.29 a 1,1 0 0 0 0.91,-0.06 l 6.46,-3.73 c 0.28,-0.15 0.32,-0.39 0.09,-0.52 z m -128.05,70.64 6.47,-3.73 c 0.27,-0.16 0.31,-0.39 0.09,-0.52 l -5.7,-3.3 a 1,1 0 0 0 -0.91,0.06 l -6.46,3.73 c -0.28,0.16 -0.32,0.39 -0.09,0.52 l 5.7,3.29 a 1,1 0 0 0 0.9,-0.05 z M 306.6,303.48 a 1,1 0 0 0 -0.91,0 l -6.46,3.73 c -0.27,0.16 -0.31,0.39 -0.09,0.52 l 5.7,3.29 a 1,1 0 0 0 0.91,-0.05 l 6.46,-3.73 c 0.27,-0.16 0.31,-0.39 0.09,-0.52 z m 49.22,-28.42 a 1,1 0 0 0 -0.91,0.05 l -6.46,3.73 c -0.28,0.16 -0.32,0.4 -0.09,0.53 l 5.7,3.29 a 1,1 0 0 0 0.9,-0.05 l 6.47,-3.73 c 0.27,-0.16 0.31,-0.4 0.09,-0.53 z M 371,272.9 356.33,264.43 a 1,1 0 0 0 -0.9,0.05 l -6.46,3.74 c -0.28,0.15 -0.32,0.39 -0.09,0.52 l 14.66,8.46 a 1,1 0 0 0 0.91,-0.05 l 6.46,-3.73 c 0.24,-0.16 0.28,-0.42 0.09,-0.52 z m -99.66,51 a 1,1 0 0 0 -0.9,0.05 l -8,4.59 c -0.27,0.16 -0.31,0.39 -0.09,0.52 l 5.7,3.29 a 1,1 0 0 0 0.91,-0.05 l 8,-4.59 c 0.28,-0.16 0.32,-0.39 0.09,-0.52 z m 23.86,-13.78 a 1,1 0 0 0 -0.9,0.05 l -9.94,5.74 c -0.28,0.16 -0.32,0.39 -0.09,0.52 l 5.7,3.29 a 1,1 0 0 0 0.9,-0.05 l 9.95,-5.74 c 0.27,-0.16 0.31,-0.39 0.08,-0.52 z m -45.73,26.4 a 1,1 0 0 0 -0.91,0.06 l -53.19,30.71 c -0.27,0.16 -0.32,0.39 -0.09,0.52 l 5.7,3.29 a 1,1 0 0 0 0.9,-0.05 L 255,340.3 c 0.27,-0.16 0.31,-0.39 0.09,-0.52 z m -56.18,32.44 a 1,1 0 0 0 -0.9,0.05 l -8,4.59 c -0.27,0.16 -0.31,0.39 -0.09,0.52 l 5.7,3.3 a 1,1 0 0 0 0.91,-0.06 l 8,-4.59 c 0.28,-0.16 0.32,-0.39 0.09,-0.52 z m 67.11,-38.75 a 1,1 0 0 0 -0.9,0.05 l -7.95,4.59 c -0.28,0.16 -0.32,0.4 -0.09,0.53 l 5.7,3.29 a 1,1 0 0 0 0.9,-0.05 l 8,-4.6 c 0.27,-0.16 0.31,-0.39 0.08,-0.52 z m -78.05,45.06 a 1,1 0 0 0 -0.9,0 l -7.95,4.6 c -0.28,0.16 -0.32,0.39 -0.09,0.52 l 5.7,3.29 a 1,1 0 0 0 0.9,-0.05 l 7.95,-4.59 c 0.28,-0.16 0.32,-0.4 0.09,-0.53 z m 99.93,-57.69 a 1,1 0 0 0 -0.91,0 l -7.95,4.6 c -0.27,0.15 -0.31,0.39 -0.09,0.52 L 279,326 a 1,1 0 0 0 0.91,-0.05 l 8,-4.6 c 0.27,-0.15 0.31,-0.39 0.09,-0.52 z M 316,298 a 1,1 0 0 0 -0.9,0.06 l -6.46,3.73 c -0.28,0.15 -0.32,0.39 -0.09,0.52 l 5.7,3.29 a 1,1 0 0 0 0.9,-0.05 l 6.46,-3.73 c 0.28,-0.16 0.32,-0.4 0.09,-0.53 z m 20.51,-15.14 6.46,-3.73 c 0.28,-0.16 0.32,-0.39 0.09,-0.52 l -5.7,-3.29 a 1,1 0 0 0 -0.9,0.05 l -6.46,3.75 c -0.28,0.16 -0.32,0.39 -0.09,0.52 l 5.7,3.3 a 1,1 0 0 0 0.94,-0.06 z m -38.81,1.71 6.46,-3.74 c 0.28,-0.15 0.32,-0.39 0.09,-0.52 l -5.7,-3.29 a 1,1 0 0 0 -0.9,0 l -6.46,3.73 c -0.28,0.16 -0.32,0.4 -0.09,0.53 l 5.7,3.29 a 1,1 0 0 0 0.94,0.02 z m -24.82,35 18.89,-10.9 c 0.27,-0.16 0.31,-0.4 0.09,-0.53 l -5.7,-3.29 a 1,1 0 0 0 -0.91,0.05 l -18.85,10.96 c -0.27,0.16 -0.31,0.39 -0.09,0.52 l 5.7,3.29 a 1,1 0 0 0 0.91,-0.05 z m 53.28,-31.23 a 1,1 0 0 0 0.91,-0.05 l 6.46,-3.73 c 0.27,-0.16 0.31,-0.4 0.09,-0.53 l -5.7,-3.29 a 1,1 0 0 0 -0.91,0 l -6.46,3.74 c -0.27,0.15 -0.31,0.39 -0.09,0.52 z m -8.06,-5.23 6.46,-3.73 c 0.28,-0.16 0.32,-0.39 0.09,-0.52 l -5.7,-3.29 a 1,1 0 0 0 -0.9,0.05 l -6.46,3.73 c -0.28,0.16 -0.32,0.39 -0.09,0.52 l 5.7,3.29 a 1,1 0 0 0 0.94,0 z m -54.67,41.92 6.47,-3.74 c 0.27,-0.15 0.31,-0.39 0.08,-0.52 l -5.7,-3.29 a 1,1 0 0 0 -0.9,0.05 l -6.38,3.78 c -0.28,0.16 -0.32,0.4 -0.09,0.53 l 5.7,3.29 a 1,1 0 0 0 0.86,-0.05 z m 41.85,-24.64 a 1,1 0 0 0 0.91,-0.05 l 6.46,-3.73 c 0.27,-0.16 0.31,-0.39 0.09,-0.52 l -5.7,-3.29 a 1,1 0 0 0 -0.91,0 l -6.46,3.73 c -0.27,0.16 -0.31,0.39 -0.09,0.52 z m -89.08,51.9 6.47,-3.73 c 0.27,-0.16 0.31,-0.39 0.09,-0.52 l -5.7,-3.29 a 1,1 0 0 0 -0.91,0.05 l -6.46,3.73 c -0.28,0.16 -0.32,0.39 -0.09,0.52 l 5.7,3.29 a 1,1 0 0 0 0.94,0 z m 9.45,-5.45 6.46,-3.73 c 0.28,-0.16 0.32,-0.39 0.09,-0.52 l -5.7,-3.3 a 1,1 0 0 0 -0.9,0.06 l -6.46,3.73 c -0.28,0.16 -0.32,0.39 -0.1,0.52 l 5.71,3.29 a 1,1 0 0 0 0.94,0 z m -18.85,10.96 6.46,-3.73 c 0.28,-0.16 0.32,-0.4 0.09,-0.53 l -5.7,-3.29 a 1,1 0 0 0 -0.9,0.05 l -6.47,3.7 c -0.27,0.16 -0.31,0.4 -0.09,0.53 l 5.7,3.29 a 1,1 0 0 0 0.91,-0.02 z m 37.78,-21.8 6.46,-3.73 c 0.28,-0.16 0.32,-0.39 0.09,-0.52 l -5.7,-3.29 a 1,1 0 0 0 -0.9,0.05 l -6.46,3.73 c -0.28,0.16 -0.32,0.39 -0.09,0.52 l 5.7,3.29 a 1,1 0 0 0 0.9,-0.05 z m -9.44,5.46 6.46,-3.74 c 0.27,-0.15 0.31,-0.39 0.09,-0.52 l -5.7,-3.29 a 1,1 0 0 0 -0.91,0.05 l -6.46,3.73 c -0.27,0.16 -0.31,0.4 -0.09,0.53 l 5.7,3.29 a 1,1 0 0 0 0.91,-0.07 z m 18.86,-10.93 6.46,-3.73 c 0.27,-0.16 0.31,-0.39 0.09,-0.52 l -5.7,-3.3 a 1,1 0 0 0 -0.91,0.06 l -6.46,3.73 c -0.27,0.16 -0.31,0.39 -0.09,0.52 l 5.7,3.29 A 1,1 0 0 0 254,330.53 Z M 306.22,255 a 1,1 0 0 0 0.9,0 l 6.47,-3.73 c 0.27,-0.16 0.31,-0.4 0.09,-0.53 l -1.52,-0.87 a 1,1 0 0 0 -0.9,0 l -6.47,3.73 c -0.27,0.16 -0.31,0.39 -0.09,0.52 z m -47.12,29.66 a 1,1 0 0 0 0.9,-0.05 l 6.46,-3.73 c 0.28,-0.16 0.32,-0.39 0.09,-0.52 l -5.7,-3.29 a 1,1 0 0 0 -0.9,0.05 l -6.47,3.73 c -0.27,0.16 -0.31,0.39 -0.09,0.52 z M 278,273.75 a 1,1 0 0 0 0.9,-0.05 l 6.46,-3.73 c 0.28,-0.16 0.32,-0.39 0.09,-0.52 l -5.7,-3.29 a 1,1 0 0 0 -0.9,0 l -6.46,3.73 c -0.28,0.16 -0.32,0.39 -0.09,0.52 z m -30.43,17.57 a 1,1 0 0 0 0.91,-0.05 l 6.46,-3.73 c 0.27,-0.16 0.31,-0.39 0.09,-0.52 l -5.7,-3.3 a 1,1 0 0 0 -0.91,0.06 l -6.42,3.73 c -0.27,0.16 -0.31,0.39 -0.09,0.52 z m 21,-12.11 a 1,1 0 0 0 0.91,0 l 6.46,-3.74 c 0.27,-0.15 0.31,-0.39 0.09,-0.52 l -5.7,-3.29 a 1,1 0 0 0 -0.91,0.05 l -6.46,3.73 c -0.27,0.16 -0.31,0.4 -0.09,0.53 z m -39.87,23 a 1,1 0 0 0 0.9,-0.05 l 6.47,-3.74 c 0.27,-0.15 0.31,-0.39 0.09,-0.52 l -5.7,-3.29 a 1,1 0 0 0 -0.91,0.05 l -6.46,3.73 c -0.28,0.16 -0.32,0.4 -0.09,0.53 z m 9.45,-5.46 a 1,1 0 0 0 0.9,0 l 6.46,-3.73 c 0.28,-0.16 0.32,-0.39 0.09,-0.52 l -5.7,-3.29 a 1,1 0 0 0 -0.9,0.05 l -6.49,3.74 c -0.28,0.16 -0.32,0.39 -0.09,0.52 z M 287.33,266 a 1,1 0 0 0 0.9,-0.06 l 6.47,-3.73 c 0.27,-0.16 0.31,-0.39 0.09,-0.52 l -1.52,-0.88 a 1,1 0 0 0 -0.91,0.06 l -6.46,3.73 c -0.27,0.16 -0.31,0.39 -0.09,0.52 z m 28.34,-16.36 a 1,1 0 0 0 0.9,-0.06 L 323,245.8 c 0.28,-0.16 0.32,-0.39 0.09,-0.52 l -1.51,-0.88 a 1,1 0 0 0 -0.91,0.06 l -6.46,3.73 c -0.28,0.16 -0.32,0.39 -0.09,0.52 z m 12,6.91 a 1,1 0 0 0 0.91,-0.05 l 6.46,-3.73 c 0.27,-0.16 0.31,-0.4 0.09,-0.53 l -5.7,-3.29 a 1,1 0 0 0 -0.91,0 l -6.52,3.74 c -0.27,0.15 -0.31,0.39 -0.09,0.52 z m 18.33,20.88 6.46,-3.73 c 0.27,-0.16 0.32,-0.39 0.09,-0.52 l -5.7,-3.29 a 1,1 0 0 0 -0.91,0.05 l -6.46,3.73 c -0.27,0.16 -0.31,0.39 -0.09,0.52 l 5.7,3.29 a 1,1 0 0 0 0.91,-0.05 z m -49.22,-16.94 a 1,1 0 0 0 0.9,-0.05 l 6.46,-3.73 c 0.28,-0.16 0.32,-0.39 0.09,-0.52 l -1.52,-0.88 a 1,1 0 0 0 -0.9,0.05 l -6.46,3.73 c -0.28,0.16 -0.32,0.4 -0.09,0.53 z m -77.56,47.19 a 1,1 0 0 0 0.91,-0.05 l 6.46,-3.73 c 0.28,-0.16 0.32,-0.39 0.09,-0.52 l -5.7,-3.3 a 1,1 0 0 0 -0.9,0.06 l -6.47,3.73 c -0.27,0.16 -0.31,0.39 -0.09,0.52 z"
         style="fill:#455a64;stroke-width:1.0202"
         id="path478" />
      <polygon
         points="348.56,340.66 312.04,319.58 248.15,356.46 249.47,357.22 284.67,377.54 347.26,341.4 "
         style="fill:#263238;stroke-width:1.0202"
         id="polygon480" />
      <polygon
         points="250.05,357.56 284.67,377.54 346.68,341.74 312.04,321.76 "
         style="fill:#37474f;stroke-width:1.0202"
         id="polygon482" />
    </g>
  </g>
  <g
     id="freepik--Cursor--inject-26"
     transform="matrix(0.96211321,0.27263175,-0.26115195,0.92482813,111.07142,-28.318936)"
     inkscape:transform-center-x="-101.87445"
     inkscape:transform-center-y="33.406628"
     style="stroke-width:1.02009">
    <g
       id="freepik--cursor--inject-26"
       style="stroke-width:1.02009">
      <path
         d="m 412.59,137.48 a 3.11,3.11 0 0 0 -1.19,-1.39 v 0 l -3,-1.72 v 0 c -1.29,-0.75 -2.88,0 -3.72,0.5 l -1.86,-1.07 v 0 c -2.25,-1.36 -5.39,1.49 -6.09,2.17 l -0.81,-0.46 v 0 c -1.06,-0.64 -2.5,-0.24 -3.79,0.41 v -10.83 a 2.73,2.73 0 0 0 -1.06,-2.44 v 0 0 h -0.05 l -2.93,-1.7 v 0 a 2.72,2.72 0 0 0 -2.68,0.28 8.46,8.46 0 0 0 -3.82,6.63 V 161 a 4.69,4.69 0 0 0 -0.46,-0.21 c -2.61,-1.85 -5.36,-2.94 -7.78,-2.51 a 8.26,8.26 0 0 0 -5,3.44 c -1.26,2.23 0.82,3.63 3.51,6.7 2.69,3.07 5,6.72 7.45,9 a 13.18,13.18 0 0 0 4.19,2.85 v 4.34 l 2.95,1.71 22.48,-13 V 169 c 0,0 2.79,-11.12 3.68,-15.77 0.89,-4.65 1.7,-12.18 -0.02,-15.75 z"
         style="fill:#407bff;stroke-width:1.02009"
         id="path540" />
      <path
         d="m 412.59,137.48 a 3.11,3.11 0 0 0 -1.19,-1.39 v 0 l -3,-1.72 v 0 c -1.29,-0.75 -2.88,0 -3.72,0.5 l -1.86,-1.07 v 0 c -2.25,-1.36 -5.39,1.49 -6.09,2.17 l -0.81,-0.46 v 0 c -1.06,-0.64 -2.5,-0.24 -3.79,0.41 v -10.83 a 2.73,2.73 0 0 0 -1.06,-2.44 v 0 0 h -0.05 l -2.93,-1.7 v 0 a 2.72,2.72 0 0 0 -2.68,0.28 8.46,8.46 0 0 0 -3.82,6.63 V 161 a 4.69,4.69 0 0 0 -0.46,-0.21 c -2.61,-1.85 -5.36,-2.94 -7.78,-2.51 a 8.26,8.26 0 0 0 -5,3.44 c -1.26,2.23 0.82,3.63 3.51,6.7 2.69,3.07 5,6.72 7.45,9 a 13.18,13.18 0 0 0 4.19,2.85 v 4.34 l 2.95,1.71 22.48,-13 V 169 c 0,0 2.79,-11.12 3.68,-15.77 0.89,-4.65 1.7,-12.18 -0.02,-15.75 z"
         style="opacity:0.8;fill:#ffffff;stroke-width:1.02009"
         id="path542" />
      <path
         d="m 392.16,136 v 3.67 0 a 16.16,16.16 0 0 1 2.89,-2 z m 13.58,-1.6 a 6.58,6.58 0 0 0 -1,0.51 l 1,0.56 a 3.33,3.33 0 0 1 1.41,1.55 7,7 0 0 1 1.7,-1 z m -7,0 a 12.69,12.69 0 0 0 -2,1.58 l 1.94,1.13 a 0.41,0.41 0 0 1 0.11,0.07 2.2,2.2 0 0 1 0.76,0.65 v 0 a 12.66,12.66 0 0 1 2.07,-1.68 z m -17.19,-6.59 V 161 a 18.68,18.68 0 0 1 2.95,1.82 v -33.31 z m 10.59,8.19 z m -9.9,43.15 c -2.43,-2.26 -4.78,-5.93 -7.44,-9 -2.52,-2.89 -4.53,-4.3 -3.7,-6.31 l -3,-1.71 c -0.82,2 1.17,3.42 3.7,6.32 2.53,2.9 5,6.71 7.44,9 a 13.31,13.31 0 0 0 4.19,2.85 v 4.35 l 3,1.7 V 182 a 13.13,13.13 0 0 1 -4.19,-2.89 z"
         style="opacity:0.2;fill:#407bff;stroke-width:1.02009"
         id="path544" />
      <path
         d="m 392.16,136 v 3.67 0 a 16.16,16.16 0 0 1 2.89,-2 z m 13.58,-1.6 a 6.58,6.58 0 0 0 -1,0.51 l 1,0.56 a 3.33,3.33 0 0 1 1.41,1.55 7,7 0 0 1 1.7,-1 z m -7,0 a 12.69,12.69 0 0 0 -2,1.58 l 1.94,1.13 a 0.41,0.41 0 0 1 0.11,0.07 2.2,2.2 0 0 1 0.76,0.65 v 0 a 12.66,12.66 0 0 1 2.07,-1.68 z m -17.19,-6.59 V 161 a 18.68,18.68 0 0 1 2.95,1.82 v -33.31 z m 10.59,8.19 z m -9.9,43.15 c -2.43,-2.26 -4.78,-5.93 -7.44,-9 -2.52,-2.89 -4.53,-4.3 -3.7,-6.31 l -3,-1.71 c -0.82,2 1.17,3.42 3.7,6.32 2.53,2.9 5,6.71 7.44,9 a 13.31,13.31 0 0 0 4.19,2.85 v 4.35 l 3,1.7 V 182 a 13.13,13.13 0 0 1 -4.19,-2.89 z"
         style="opacity:0.1;stroke-width:1.02009"
         id="path546" />
      <path
         d="M 386.43,186.31 V 182 a 13.13,13.13 0 0 1 -4.19,-2.86 c -2.43,-2.26 -4.78,-5.93 -7.44,-9 -2.66,-3.07 -4.78,-4.47 -3.51,-6.71 a 8.27,8.27 0 0 1 5,-3.43 c 2.57,-0.46 5.49,0.79 8.24,2.83 v -33.32 a 8.46,8.46 0 0 1 3.83,-6.62 v 0 c 2.11,-1.22 3.82,-0.23 3.82,2.2 v 14.55 c 0,0 5.28,-4.68 7.41,-1.81 0,0 5.18,-5.42 7.51,-0.84 0,0 3.81,-3.07 5.52,0.49 1.71,3.56 0.89,11.09 0,15.74 -0.89,4.65 -3.71,15.78 -3.71,15.78 v 4.34 z"
         style="fill:#407bff;stroke-width:1.02009"
         id="path548" />
      <path
         d="M 386.43,186.31 V 182 a 13.13,13.13 0 0 1 -4.19,-2.86 c -2.43,-2.26 -4.78,-5.93 -7.44,-9 -2.66,-3.07 -4.78,-4.47 -3.51,-6.71 a 8.27,8.27 0 0 1 5,-3.43 c 2.57,-0.46 5.49,0.79 8.24,2.83 v -33.32 a 8.46,8.46 0 0 1 3.83,-6.62 v 0 c 2.11,-1.22 3.82,-0.23 3.82,2.2 v 14.55 c 0,0 5.28,-4.68 7.41,-1.81 0,0 5.18,-5.42 7.51,-0.84 0,0 3.81,-3.07 5.52,0.49 1.71,3.56 0.89,11.09 0,15.74 -0.89,4.65 -3.71,15.78 -3.71,15.78 v 4.34 z"
         style="opacity:0.65;fill:#ffffff;stroke-width:1.02009"
         id="path550" />
      <g
         style="opacity:0.1;stroke-width:1.02009"
         id="g558">
        <path
           d="m 392.15,145.89 c 0,0 0.48,-6.64 2.92,-8.22 h -0.08 a 16,16 0 0 0 -2.84,1.94 v -0.12 a 0.19,0.19 0 0 0 0,0.12 z"
           id="path552"
           style="stroke-width:1.02009" />
        <path
           d="m 399.56,137.83 v 6.07 c 0,0 0.67,-6.24 2.07,-7.75 a 12.56,12.56 0 0 0 -2.07,1.68 z"
           id="path554"
           style="stroke-width:1.02009" />
        <path
           d="m 407.07,137 v 0 6.09 c 0,0 0.38,-6.14 1.7,-7 a 7.24,7.24 0 0 0 -1.7,0.91 z"
           id="path556"
           style="stroke-width:1.02009" />
      </g>
    </g>
  </g>
  <g
     id="freepik--Character--inject-26"
     transform="matrix(-0.9608019,0,0,1,478.4257,0)"
     style="stroke-width:1.0202">
    <g
       id="g677"
       style="stroke-width:1.0202">
      <path
         id="path562"
         d="m 336.53,311.4 c -17.27,8.61 -25.11,17.65 -16.17,24 8.94,6.35 33.27,14.92 33.27,14.92 l 3.19,10.68 35.34,-20.41 v -12.11 c 0,0 -21.81,-15 -30.32,-17.94 -8.51,-2.94 -15.19,-4.18 -25.31,0.86 z"
         style="opacity:0.15;stroke-width:1.0202" />
      <g
         id="freepik--character--inject-26"
         style="stroke-width:1.0202">
        <path
           d="m 385.26,366.13 c 0,0 -5.33,13.09 -5.61,18.25 -0.28,5.37 -1.58,7.16 -0.67,13 0.2,1.27 0.87,3.82 1,4.86 a 1.52,1.52 0 0 1 -1.38,1.9 c -2.34,0.49 -6.21,-3.9 -8.06,-8.67 a 142,142 0 0 1 -4.54,-16.8 7.36,7.36 0 0 1 0.74,-3.77 11.29,11.29 0 0 1 1.07,-1.95 c 0.77,-2.34 1.14,-6.79 1.79,-9.87 z"
           style="fill:#ffa8a7;stroke-width:1.0202"
           id="path564" />
        <path
           d="m 361.4,383.57 a 5.6,5.6 0 0 0 -0.63,1.76 c 0,1.07 2.37,4.61 3.32,5.89 a 8.63,8.63 0 0 1 1.75,6.12 c -0.14,3.43 1.38,6.74 3.59,9.57 a 23.69,23.69 0 0 0 11.73,7.68 c 5.67,1.74 7.67,-1.1 7.67,-1.1 0,0 1.75,-2.73 0.7,-3.85 -1.05,-1.12 -28.13,-26.07 -28.13,-26.07 z"
           style="fill:#263238;stroke-width:1.0202"
           id="path566" />
        <path
           d="m 367.77,373 c -0.17,0 -0.48,-0.05 -0.92,0.48 -0.17,0.2 -1.2,2.75 -2.06,4.09 -0.86,1.34 -3.11,3.88 -3.39,6.05 1.31,4.2 5.25,7.12 5.84,11.09 0.59,3.97 0.66,8.56 6.75,13.42 6.09,4.86 12.36,5.35 14.61,4.06 2.25,-1.29 2,-3.69 -1.09,-8.29 -3.33,-4.87 -5.58,-15.44 -5.58,-15.45 a 35.59,35.59 0 0 1 -0.59,-4.49 30.58,30.58 0 0 1 0.42,-4.45 3.26,3.26 0 0 0 -0.28,-2 3.41,3.41 0 0 0 -1.68,-1.16 14.44,14.44 0 0 0 -3.13,-1.06 5,5 0 0 0 -3.22,0.39 22.81,22.81 0 0 1 -2,1.28 2.87,2.87 0 0 1 -3,-0.53 2.47,2.47 0 0 1 -0.81,-2.75 6.6,6.6 0 0 1 0.13,-0.68 z"
           style="fill:#455a64;stroke-width:1.0202"
           id="path568" />
        <path
           d="m 370.43,404.19 a 9.69,9.69 0 0 1 8.83,-4.78 c 6.47,0 8.71,3.32 9.69,5.25 1.18,2.31 2.4,6.49 -0.27,7.69 -2.89,1.29 -6.23,0.89 -11.48,-1.74 -5.25,-2.63 -6.77,-6.42 -6.77,-6.42 z"
           style="fill:#fafafa;stroke-width:1.0202"
           id="path570" />
        <path
           d="m 371.61,384.7 a 0.68,0.68 0 0 0 0.59,0 c 1,-0.51 6.29,-1.61 9.37,1.24 0.39,-0.32 0.31,-0.9 -0.2,-1.72 -3.6,-2.29 -8.61,-1.27 -9.81,-0.66 a 0.61,0.61 0 0 0 -0.25,0.86 0.65,0.65 0 0 0 0.3,0.28 z"
           style="fill:#fafafa;stroke-width:1.0202"
           id="path572" />
        <path
           d="m 382.23,389.71 a 2,2 0 0 0 -0.37,-1.78 12.12,12.12 0 0 0 -9.37,-0.38 0.63,0.63 0 0 0 -0.25,0.86 0.7,0.7 0 0 0 0.31,0.28 0.65,0.65 0 0 0 0.59,0 c 0.97,-0.49 5.98,-1.54 9.09,1.02 z"
           style="fill:#fafafa;stroke-width:1.0202"
           id="path574" />
        <path
           d="m 384.87,398.45 a 3.67,3.67 0 0 0 -0.83,-2.34 c -3.59,-2.17 -8.48,-1.17 -9.67,-0.56 a 0.62,0.62 0 0 0 -0.25,0.86 0.68,0.68 0 0 0 0.89,0.28 c 1.06,-0.54 6.89,-1.69 9.86,1.76 z"
           style="fill:#fafafa;stroke-width:1.0202"
           id="path576" />
        <path
           d="m 373.48,392.69 a 0.68,0.68 0 0 0 0.59,0 c 1,-0.51 6.17,-1.58 9.27,1.15 a 2.26,2.26 0 0 0 -0.54,-1.91 12.12,12.12 0 0 0 -9.37,-0.38 0.63,0.63 0 0 0 -0.25,0.86 0.67,0.67 0 0 0 0.3,0.28 z"
           style="fill:#fafafa;stroke-width:1.0202"
           id="path578" />
        <path
           d="m 391,382.2 c 0,0 2.65,16 5.59,22.15 2.94,6.15 4.46,9.18 8.51,13.87 0.88,1 2.89,2.91 3.61,3.74 a 1.6,1.6 0 0 1 -0.17,2.46 c -1.8,1.72 -9.44,2.13 -13.72,-1.08 -4.28,-3.21 -8.18,-10 -10.74,-12.63 -1,-1 -1.86,-2 -2.72,-3 -0.86,-1 -0.6,-2 -0.67,-3.12 0,-0.55 0,-2.05 0,-2.05 -0.59,-2.69 -2.17,-6.9 -3,-9.52 z"
           style="fill:#ffa8a7;stroke-width:1.0202"
           id="path580" />
        <path
           d="m 379.23,414.58 a 5.71,5.71 0 0 0 0.2,1.95 c 0.42,1 4.29,3.3 5.77,4.09 a 9.06,9.06 0 0 1 4.38,5 c 1.41,3.31 4.32,5.76 7.68,7.45 a 24.71,24.71 0 0 0 14.53,2 c 6.14,-0.88 6.76,-4.46 6.76,-4.46 0,0 0.45,-3.37 -1.05,-4 -1.5,-0.63 -38.27,-12.03 -38.27,-12.03 z"
           style="fill:#263238;stroke-width:1.0202"
           id="path582" />
        <path
           d="m 380.52,401.69 c -0.16,0.07 -0.47,0.16 -0.66,0.86 -0.06,0.27 0.1,3.14 -0.12,4.79 -0.22,1.65 -1.21,5.05 -0.51,7.24 3.12,3.39 8.15,4.39 10.48,7.88 2.33,3.49 4.45,7.81 12.39,9.68 7.94,1.87 14.08,-0.45 15.64,-2.67 1.56,-2.22 0.28,-4.41 -4.74,-7.36 C 407.67,419 400.83,410 400.82,410 a 37.59,37.59 0 0 1 -2.56,-4 30.21,30.21 0 0 1 -1.59,-4.39 3.43,3.43 0 0 0 -1.17,-1.78 3.5,3.5 0 0 0 -2.1,-0.35 15.25,15.25 0 0 0 -3.44,0.39 5.24,5.24 0 0 0 -2.88,1.81 22.91,22.91 0 0 1 -1.33,2.12 3,3 0 0 1 -3.07,0.83 2.58,2.58 0 0 1 -2,-2.24 6.3,6.3 0 0 1 -0.16,-0.7 z"
           style="fill:#455a64;stroke-width:1.0202"
           id="path584" />
        <path
           d="m 397,430.05 a 10.16,10.16 0 0 1 6.22,-8.46 c 6.14,-2.87 9.73,-0.75 11.52,0.64 2.14,1.66 5.16,5.07 3.17,7.4 -2.15,2.51 -5.49,3.62 -11.64,3.48 -6.15,-0.14 -9.27,-3.06 -9.27,-3.06 z"
           style="fill:#fafafa;stroke-width:1.0202"
           id="path586" />
        <path
           d="m 389.4,411.08 a 0.7,0.7 0 0 0 0.56,-0.26 c 0.71,-0.93 5.22,-4.34 9.41,-3 0.24,-0.48 -0.1,-1 -0.95,-1.55 -4.43,-0.56 -8.71,2.65 -9.58,3.77 a 0.63,0.63 0 0 0 0.15,0.92 0.67,0.67 0 0 0 0.41,0.12 z"
           style="fill:#fafafa;stroke-width:1.0202"
           id="path588" />
        <path
           d="m 401.69,411.08 a 2.14,2.14 0 0 0 -1.15,-1.52 c -4.22,-0.23 -8.19,2.76 -9,3.83 a 0.65,0.65 0 0 0 0.15,0.93 0.69,0.69 0 0 0 0.41,0.13 0.71,0.71 0 0 0 0.56,-0.27 c 0.67,-0.9 4.95,-4.13 9.03,-3.1 z"
           style="fill:#fafafa;stroke-width:1.0202"
           id="path590" />
        <path
           d="m 408.09,418.17 a 3.83,3.83 0 0 0 -1.83,-1.84 c -4.36,-0.45 -8.54,2.68 -9.4,3.79 a 0.65,0.65 0 0 0 0.15,0.93 0.76,0.76 0 0 0 0.41,0.13 0.71,0.71 0 0 0 0.56,-0.27 c 0.76,-0.98 5.74,-4.72 10.11,-2.74 z"
           style="fill:#fafafa;stroke-width:1.0202"
           id="path592" />
        <path
           d="m 394.75,417.81 a 0.69,0.69 0 0 0 0.55,-0.26 c 0.71,-0.92 5.13,-4.26 9.28,-3.05 a 2.36,2.36 0 0 0 -1.36,-1.57 12.62,12.62 0 0 0 -9,3.83 0.64,0.64 0 0 0 0.14,0.92 0.72,0.72 0 0 0 0.39,0.13 z"
           style="fill:#fafafa;stroke-width:1.0202"
           id="path594" />
        <path
           d="m 355.8,291.32 c 6.54,4.79 29.33,17.95 38.58,26.51 2.68,2.48 3.56,5.73 2.9,12.83 -0.89,9.64 -8.46,42.47 -8.46,42.47 -1.05,1.85 -2.88,-1.66 -2.88,-1.66 l -36.11,-45.84 z"
           style="fill:#407bff;stroke-width:1.0202"
           id="path596" />
        <path
           d="m 355.8,291.32 c 6.54,4.79 29.33,17.95 38.58,26.51 2.68,2.48 3.56,5.73 2.9,12.83 -0.89,9.64 -8.46,42.47 -8.46,42.47 -1.05,1.85 -2.88,-1.66 -2.88,-1.66 l -36.11,-45.84 z"
           style="opacity:0.3;stroke-width:1.0202"
           id="path598" />
        <path
           d="m 387.25,362.91 c -8.35,-7 -35.34,-49.57 -35.34,-49.57 v 0 c 3.68,-3.1 5.57,-13.87 5.57,-13.87 1.46,4.15 -0.08,10.42 -1.21,12.71 2.12,1.84 14.13,11.71 22.47,18.31 a 12,12 0 0 1 4.96,7.51 c 1.72,9 3.75,23.08 3.55,24.91 z"
           style="opacity:0.3;stroke-width:1.0202"
           id="path600" />
        <path
           d="m 355.8,291.32 v 0 l -46.48,10.29 c 2.27,8.53 2.92,12.94 5.29,17.43 2.37,4.49 5,9.31 17.1,15.27 11.64,5.73 25.85,11.63 28.7,13 2.14,1 3.16,5.31 4.13,10.87 1,5.82 1.11,10.39 6.88,22.62 5.64,12 6.8,14.56 6.8,14.56 0,0 8.73,0.91 14.53,-4.19 0,0 -7.91,-41.07 -9.6,-48.46 -0.94,-4.13 -1,-6.3 -6.09,-10.84 -4.39,-3.89 -24,-18.75 -24,-18.75 0,0 7.77,-10.49 2.74,-21.8 z"
           style="fill:#407bff;stroke-width:1.0202"
           id="path602" />
        <path
           d="m 355.8,291.32 v 0 l -46.48,10.29 c 2.27,8.53 2.92,12.94 5.29,17.43 2.37,4.49 5,9.31 17.1,15.27 11.64,5.73 25.85,11.63 28.7,13 2.14,1 3.16,5.31 4.13,10.87 1,5.82 1.11,10.39 6.88,22.62 5.64,12 6.8,14.56 6.8,14.56 0,0 8.73,0.91 14.53,-4.19 0,0 -7.91,-41.07 -9.6,-48.46 -0.94,-4.13 -1,-6.3 -6.09,-10.84 -4.39,-3.89 -24,-18.75 -24,-18.75 0,0 7.77,-10.49 2.74,-21.8 z"
           style="opacity:0.3;stroke-width:1.0202"
           id="path604" />
        <path
           d="m 409.23,214.1 a 4.55,4.55 0 0 0 -2.31,0.47 15,15 0 0 0 -2.35,1.53 c -1.16,0.86 -2.34,1.66 -3.56,2.43 a 9.9,9.9 0 0 1 -3.5,1.66 c -0.43,0.07 -1.35,0.08 -0.88,-0.57 a 17.49,17.49 0 0 0 1.75,-2.61 3.73,3.73 0 0 0 0.26,-3 1.3,1.3 0 0 0 -0.59,-0.71 c -0.41,-0.19 -0.62,0 -0.85,0.3 a 10,10 0 0 1 -0.82,0.77 c -0.58,0.51 -1.16,1 -1.73,1.54 -3.35,3 -7.42,5.67 -8.85,10.06 a 27.44,27.44 0 0 0 -1.18,8.35 c 0,4.82 -0.32,21.59 -0.32,21.59 0,0 -13.32,-11.21 -19.09,-16 -2.79,-2.33 -6.68,-5.16 -11,-5.57 -3,-0.28 -4.81,-0.27 -4.81,-0.27 l 9.09,22 c 0,0 17.17,12.78 25.41,17.18 7.43,4 11.05,1.11 11.95,-1 1.49,-3.46 3,-5.08 0.92,-24.36 -0.15,-1.49 -0.34,-5.76 -0.51,-7.25 -0.21,-3.11 0.14,-6.27 1.35,-6.95 a 36.93,36.93 0 0 0 6.3,-4.27 18.88,18.88 0 0 0 3.33,-3.75 5.73,5.73 0 0 0 1.14,-2.15 10.88,10.88 0 0 1 0,-2.21 c 0.15,-0.48 0.48,-0.88 0.6,-1.4 0.25,-1.07 0.16,-2.29 0.83,-3.21 0.38,-0.5 1,-1 0.91,-1.58 a 1.3,1.3 0 0 0 -1.07,-0.93 3.25,3.25 0 0 0 -0.42,-0.09 z"
           style="fill:#ffa8a7;stroke-width:1.0202"
           id="path606" />
        <path
           d="m 395.64,222.47 a 14,14 0 0 1 -3.47,6.94 8.19,8.19 0 0 0 2.95,-3 c 0.96,-1.98 0.88,-2.99 0.52,-3.94 z"
           style="fill:#f28f8f;stroke-width:1.0202"
           id="path608" />
        <path
           d="m 348.51,233.56 c 4.64,0.2 8.25,0.3 12.21,2.59 3.96,2.29 21.6,17.06 21.6,17.06 0,0 0.18,-7.53 0.63,-11.49 0.31,-2.75 0.77,-3.61 1.63,-3.48 0,0 1.53,2.35 5.86,2.68 4.33,0.33 5.8,-1.48 5.8,-1.48 0,0 1.27,-0.3 1.72,1.48 0.45,1.78 1.27,21 0.48,26.53 -0.79,5.53 -3.27,8.11 -6.6,8.89 -3.33,0.78 -11,-3.89 -20.29,-10.11 -9.29,-6.22 -19.31,-12 -19.31,-12 z"
           style="fill:#407bff;stroke-width:1.0202"
           id="path610" />
        <path
           d="m 348.51,233.56 c 4.64,0.2 8.25,0.3 12.21,2.59 3.96,2.29 21.6,17.06 21.6,17.06 0,0 0.18,-7.53 0.63,-11.49 0.31,-2.75 0.77,-3.61 1.63,-3.48 0,0 1.53,2.35 5.86,2.68 4.33,0.33 5.8,-1.48 5.8,-1.48 0,0 1.27,-0.3 1.72,1.48 0.45,1.78 1.27,21 0.48,26.53 -0.79,5.53 -3.27,8.11 -6.6,8.89 -3.33,0.78 -11,-3.89 -20.29,-10.11 -9.29,-6.22 -19.31,-12 -19.31,-12 z"
           style="opacity:0.7;fill:#ffffff;stroke-width:1.0202"
           id="path612" />
        <path
           d="m 382.32,253.21 a 36.43,36.43 0 0 0 0.39,10.78 c 0,0 -3.39,-6.54 -2.35,-12.53 z"
           style="opacity:0.1;stroke-width:1.0202"
           id="path614" />
        <path
           d="m 310.4,237.62 c -0.77,4 -8.46,42.55 0.29,71.26 15.77,1.86 43.45,-5.38 47.6,-15.81 0,0 -2.79,-9.9 -4,-14.75 0.26,-7.94 0,-23.1 -0.16,-27.79 -0.32,-9.29 -1.77,-16.48 -6.38,-17.16 0,0 -9.26,-0.36 -14.86,-0.13 -4.84,0.19 -8.48,0.25 -8.48,0.25 z"
           style="fill:#fafafa;stroke-width:1.0202"
           id="path616" />
        <path
           d="m 333.55,298.81 c -1,-2.26 -19.73,-13.81 -19.73,-13.81 0,0 0.29,-5.35 1.4,-15.2 1.11,-9.85 1.45,-21.65 -2.1,-27.58 l -3.58,0.14 c -2,11.95 -6.14,42.61 1.15,66.52 8.41,1 20.2,-0.61 30,-3.89 -1.8,-1.22 -6.33,-4.38 -7.14,-6.18 z"
           style="fill:#f0f0f0;stroke-width:1.0202"
           id="path618" />
        <path
           d="m 322.78,224.45 c 0,-2 -3.79,-7.94 -5.52,-12.65 -2.89,-7.87 -3.14,-14.94 4,-18 0,0 4.46,-7.69 15.71,-8.08 11.25,-0.39 19.88,9.11 16.15,21.8 z"
           style="fill:#455a64;stroke-width:1.0202"
           id="path620" />
        <path
           d="m 325.56,212.29 c -1.47,0 -2,-2.11 -3,-3.24 a 4.35,4.35 0 0 0 -6.72,0.84 c -2.08,3 -0.06,7.34 2.21,9 2.85,2.12 4.82,0.08 4.82,0.08 l -0.26,15.89 c 0,0 0.51,3.52 7,5.57 7.5,2.36 13.6,-1.59 9.13,-6.53 l 0.17,-4.19 a 21.5,21.5 0 0 0 7.25,0.4 c 2.5,-0.38 4.5,-2.26 5.78,-6.12 2.51,-7.52 1.82,-17.56 -0.77,-26.72 -2.48,2 -13.92,5.63 -24.23,2 0.35,6.33 0.06,13.02 -1.38,13.02 z"
           style="fill:#ffa8a7;stroke-width:1.0202"
           id="path622" />
        <path
           d="m 321.48,217.2 a 0.93,0.93 0 1 1 -0.93,-0.93 0.93,0.93 0 0 1 0.93,0.93 z"
           style="fill:#263238;stroke-width:1.0202"
           id="path624" />
        <path
           d="m 338.9,229.72 c 0,0 -6.26,-1.83 -8.72,-3.56 a 12,12 0 0 1 -3.84,-4.37 16.16,16.16 0 0 0 2.64,5.29 c 3,3.39 9.84,5 9.84,5 z"
           style="fill:#f28f8f;stroke-width:1.0202"
           id="path626" />
        <path
           d="m 338.4,212.21 a 1.56,1.56 0 1 1 -1.59,-1.6 1.59,1.59 0 0 1 1.59,1.6 z"
           style="fill:#263238;stroke-width:1.0202"
           id="path628" />
        <path
           d="m 336.69,206.89 -3.36,1.78 a 2,2 0 0 1 0.83,-2.64 1.85,1.85 0 0 1 2.53,0.86 z"
           style="fill:#263238;stroke-width:1.0202"
           id="path630" />
        <path
           d="m 337.91,220.39 5.35,1.71 a 3,3 0 0 1 -3.63,1.86 2.74,2.74 0 0 1 -1.72,-3.57 z"
           style="fill:#f28f8f;stroke-width:1.0202"
           id="path632" />
        <path
           d="m 351.1,206.83 -3.69,-1 a 1.84,1.84 0 0 1 2.29,-1.37 2,2 0 0 1 1.4,2.37 z"
           style="fill:#263238;stroke-width:1.0202"
           id="path634" />
        <path
           d="m 350.15,211 a 1.56,1.56 0 1 1 -1.59,-1.6 1.59,1.59 0 0 1 1.59,1.6 z"
           style="fill:#263238;stroke-width:1.0202"
           id="path636" />
        <path
           d="m 351.87,197.28 c 3.46,-2.46 5.38,-5.76 4.46,-10.29 -1.35,1.35 -5.13,1.6 -8.43,0 a 25.91,25.91 0 0 0 -17,-2.46 c -6.11,1.19 -9.69,5.83 -9.69,9.25 1.2,2.44 2.84,3.74 5.68,5.47 a 22.65,22.65 0 0 0 14.74,4.24 14.55,14.55 0 0 0 8.68,-3.14 c 0,0 -3.19,0.28 -4.69,-0.71 a 16.52,16.52 0 0 0 6.25,-2.36 z"
           style="fill:#37474f;stroke-width:1.0202"
           id="path638" />
        <polygon
           points="342.13,207.82 343.45,218.41 348.22,216.23 "
           style="fill:#f28f8f;stroke-width:1.0202"
           id="polygon640" />
        <g
           id="freepik--laptop--inject-26"
           style="stroke-width:1.0202">
          <path
             d="m 395.83,319.53 a 9.55,9.55 0 0 0 -1.44,-1.7 c -5.56,-5.14 -16,-11.94 -24.87,-17.59 l -40.36,23.3 a 0.37,0.37 0 0 0 0,0.64 l 29.31,16.93 z"
             style="opacity:0.15;stroke-width:1.0202"
             id="path642" />
          <path
             d="m 408.07,307.69 v 0.65 a 2.68,2.68 0 0 1 -1.34,2.32 l -46.92,27.09 a 2.67,2.67 0 0 1 -1.34,0.36 2.73,2.73 0 0 1 -1.35,-0.36 L 331.55,323 a 2.7,2.7 0 0 1 -1.34,-2.32 v -0.91 0 a 0.33,0.33 0 0 0 0.17,0.3 l 28.08,16.22 z"
             style="fill:#37474f;stroke-width:1.0202"
             id="path644" />
          <path
             d="m 358.47,336.32 v 1.79 a 2.67,2.67 0 0 0 1.34,-0.36 l 46.92,-27.09 a 2.68,2.68 0 0 0 1.34,-2.32 v -0.66 z"
             style="fill:#263238;stroke-width:1.0202"
             id="path646" />
          <path
             d="m 408.07,307.68 -27.82,-16.06 a 1.63,1.63 0 0 0 -1.6,0 l -48.26,27.87 a 0.36,0.36 0 0 0 0,0.62 l 28.08,16.21 z"
             style="fill:#455a64;stroke-width:1.0202"
             id="path648" />
          <polygon
             points="343.21,325.31 387.09,299.98 402.17,308.58 358.21,333.96 "
             style="fill:#37474f;stroke-width:1.0202"
             id="polygon650" />
          <polygon
             points="401.6,308.91 387.08,300.63 343.78,325.64 343.21,325.31 387.08,299.97 402.17,308.58 "
             style="fill:#263238;stroke-width:1.0202"
             id="polygon652" />
          <polygon
             points="351.12,310.05 358.47,314.29 371.55,306.74 371.82,306.58 364.19,302.18 350.84,309.89 "
             style="fill:#263238;stroke-width:1.0202"
             id="polygon654" />
          <polygon
             points="358.47,314.29 371.55,306.74 364.19,302.5 351.12,310.05 "
             style="fill:#37474f;stroke-width:1.0202"
             id="polygon656" />
          <g
             id="freepik--Arm--inject-26"
             style="stroke-width:1.0202">
            <path
               d="m 365.07,315.14 c -2.1,-2.08 -5.15,-5 -7.72,-5.83 a 16.76,16.76 0 0 0 -1.8,-0.56 19.72,19.72 0 0 0 2.63,-0.52 4.68,4.68 0 0 0 2.23,-1.48 c 0.22,-0.29 0.38,-0.75 0.1,-1 a 0.59,0.59 0 0 0 -0.36,-0.13 c -1.93,-0.06 -3.44,-0.36 -5.19,-0.48 a 7.12,7.12 0 0 0 -2.35,0 c -0.72,0.19 -1.43,0.4 -2.13,0.65 -3.19,1.1 -6.1,2.09 -10.61,1 l -8.12,-4.33 c 0,0 -1.74,-0.44 -4.3,3.89 -2.56,4.33 -1.06,6.71 -1.06,6.71 l 9.12,3.15 v 0 l 0.13,0.05 a 30.4,30.4 0 0 0 4.31,1.9 c 2.84,0.87 6.48,-0.16 8.95,-0.29 2.47,-0.13 6.66,1 9,1.94 2.34,0.94 5,-2.6 6.19,-2.18 1.19,0.42 3.09,-0.4 0.98,-2.49 z"
               style="fill:#ffa8a7;stroke-width:1.0202"
               id="path658" />
            <path
               d="M 354.48,307.39 A 8.56,8.56 0 0 0 351,308 a 19,19 0 0 1 4.56,0.79 19.72,19.72 0 0 0 2.63,-0.52 4.94,4.94 0 0 0 2,-1.24 c -1.37,0.9 -4.04,0.53 -5.71,0.36 z"
               style="fill:#f28f8f;stroke-width:1.0202"
               id="path660" />
            <path
               d="m 310.4,237.62 c 2.31,0.91 5.32,10.55 3.46,19.82 l -4.3,29 c 0,0 5.27,3.12 12.67,7.7 5.12,3.18 9.51,6.09 9.52,8.44 -3.36,1.2 -6.38,7.38 -5.36,10.6 -2.29,2.72 -23.45,-9 -30.85,-14.07 -3.43,-2.35 -5.16,-3.27 -3.84,-13.86 1.46,-11.72 2.46,-24.74 4.75,-33.43 2.38,-9.09 5.03,-12.61 13.95,-14.2 z"
               style="fill:#407bff;stroke-width:1.0202"
               id="path662" />
            <path
               d="m 310.4,237.62 c 2.31,0.91 5.32,10.55 3.46,19.82 l -4.3,29 c 0,0 5.27,3.12 12.67,7.7 5.12,3.18 9.51,6.09 9.52,8.44 -3.36,1.2 -6.38,7.38 -5.36,10.6 -2.29,2.72 -23.45,-9 -30.85,-14.07 -3.43,-2.35 -5.16,-3.27 -3.84,-13.86 1.46,-11.72 2.46,-24.74 4.75,-33.43 2.38,-9.09 5.03,-12.61 13.95,-14.2 z"
               style="opacity:0.7;fill:#ffffff;stroke-width:1.0202"
               id="path664" />
          </g>
          <path
             d="m 359.23,336.72 a 3.16,3.16 0 0 0 2.73,-0.21 l 46.72,-27 a 3.17,3.17 0 0 0 1.54,-2.22 l 5.12,-30.5 a 3.12,3.12 0 0 0 0,-0.52 3.16,3.16 0 0 0 -0.94,-2.26 l -48.54,28 a 2.35,2.35 0 0 0 -1.15,1.64 z"
             style="fill:#37474f;stroke-width:1.0202"
             id="path667" />
          <path
             d="m 358.47,336.32 0.32,0.19 a 3.55,3.55 0 0 0 0.44,0.21 l 5.52,-33 a 2.35,2.35 0 0 1 1.15,-1.64 l 48.54,-28 a 3.21,3.21 0 0 0 -0.65,-0.5 l -48.64,28.09 a 2.31,2.31 0 0 0 -1.14,1.64 z"
             style="fill:#455a64;stroke-width:1.0202"
             id="path669" />
          <path
             d="m 365.21,302.69 -0.76,-0.43 a 2.3,2.3 0 0 0 -0.44,1 l -5.54,33.05 0.32,0.19 a 3.55,3.55 0 0 0 0.44,0.21 l 5.52,-33 a 2.42,2.42 0 0 1 0.46,-1.02 z"
             style="fill:#263238;stroke-width:1.0202"
             id="path671" />
          <path
             d="m 385.54,308.56 c 0.34,-2 2.45,-4.75 4.71,-6.05 2.26,-1.3 3.81,-0.71 3.46,1.33 -0.35,2.04 -2.45,4.76 -4.7,6.06 -2.25,1.3 -3.82,0.71 -3.47,-1.34 z"
             style="fill:#407bff;stroke-width:1.0202"
             id="path673" />
        </g>
      </g>
    </g>
  </g>
  <g
     id="freepik--Browser--inject-26"
     transform="matrix(1.2209991,0.43222647,0.23379961,0.90176509,17.535093,-87.171889)"
     inkscape:transform-center-x="-33.435798"
     inkscape:transform-center-y="50.000004">
    <g
       id="freepik--Www--inject-26">
      <g
         id="freepik--www--inject-26">
        <path
           d="m 386.22,63.42 c 0,-2.63 -0.92,-4.49 -2.41,-5.36 -1.49,-0.87 -10.23,-5.92 -11.75,-6.78 -1.52,-0.86 -3.57,-0.73 -5.85,0.59 L 203,146.13 v 54 l 11.7,6.75 163.2,-94.23 c 4.6,-2.65 8.32,-9.09 8.32,-14.4 z"
           style="fill:#407bff"
           id="path1060" />
        <path
           d="m 386.22,63.42 c 0,-2.63 -0.92,-4.49 -2.41,-5.36 -1.49,-0.87 -10.23,-5.92 -11.75,-6.78 -1.52,-0.86 -3.57,-0.73 -5.85,0.59 L 203,146.13 v 54 l 11.7,6.75 163.2,-94.23 c 4.6,-2.65 8.32,-9.09 8.32,-14.4 z"
           style="opacity:0.15"
           id="path1062" />
        <path
           d="m 377.9,58.62 c 4.6,-2.65 8.32,-0.5 8.32,4.8 v 34.83 c 0,5.31 -3.72,11.75 -8.32,14.4 l -163.25,94.26 v -54 z"
           style="fill:#407bff"
           id="path1064" />
        <path
           d="m 376.23,108.2 a 12.42,12.42 0 0 0 5.6,-9.7 V 66.32 c 0,-2.54 -1.79,-3.57 -4,-2.31 L 217.94,156.4 v 43.26 z"
           style="fill:#fafafa"
           id="path1066" />
        <path
           d="m 245.8,173 a 1.69,1.69 0 0 1 -0.17,0.74 1.11,1.11 0 0 1 -0.42,0.51 l -2.76,1.59 a 0.31,0.31 0 0 1 -0.42,0 0.74,0.74 0 0 1 -0.17,-0.54 v -8.54 a 3.58,3.58 0 0 0 -0.46,-2.06 c -0.31,-0.41 -0.79,-0.42 -1.45,0 a 3.32,3.32 0 0 0 -1.44,1.7 7.25,7.25 0 0 0 -0.44,2.59 v 8.54 a 1.72,1.72 0 0 1 -0.18,0.75 1.23,1.23 0 0 1 -0.42,0.51 l -2.76,1.59 a 0.31,0.31 0 0 1 -0.42,0 0.74,0.74 0 0 1 -0.17,-0.54 v -22.26 a 1.81,1.81 0 0 1 0.17,-0.74 1.11,1.11 0 0 1 0.42,-0.51 l 2.76,-1.6 a 0.33,0.33 0 0 1 0.42,0 0.7,0.7 0 0 1 0.18,0.54 v 7.19 a 10,10 0 0 1 1.16,-2 5.77,5.77 0 0 1 1.82,-1.71 4.41,4.41 0 0 1 1.93,-0.65 1.93,1.93 0 0 1 1.5,0.53 3.94,3.94 0 0 1 1,1.83 12.12,12.12 0 0 1 0.35,3.24 z"
           style="fill:#455a64"
           id="path1068" />
        <path
           d="m 253.39,162.66 a 1.88,1.88 0 0 0 0.22,1.07 c 0.14,0.19 0.39,0.2 0.72,0 l 1.76,-1 a 0.31,0.31 0 0 1 0.41,0 0.7,0.7 0 0 1 0.18,0.54 v 3.41 a 1.68,1.68 0 0 1 -0.18,0.74 1,1 0 0 1 -0.41,0.51 l -2.09,1.2 a 4.06,4.06 0 0 1 -1.87,0.63 2,2 0 0 1 -1.44,-0.49 3.35,3.35 0 0 1 -0.92,-1.56 8.68,8.68 0 0 1 -0.33,-2.59 v -5.67 l -1.62,0.93 a 0.31,0.31 0 0 1 -0.42,0 0.74,0.74 0 0 1 -0.17,-0.54 v -3.41 a 1.85,1.85 0 0 1 0.17,-0.74 1.11,1.11 0 0 1 0.42,-0.51 l 1.62,-0.94 v -5.5 a 1.68,1.68 0 0 1 0.18,-0.74 1.1,1.1 0 0 1 0.41,-0.51 l 2.77,-1.59 a 0.3,0.3 0 0 1 0.41,0 0.73,0.73 0 0 1 0.18,0.54 V 152 l 2.48,-1.43 a 0.3,0.3 0 0 1 0.41,0 0.73,0.73 0 0 1 0.18,0.54 v 3.41 a 1.72,1.72 0 0 1 -0.18,0.75 1.09,1.09 0 0 1 -0.41,0.51 l -2.48,1.43 z"
           style="fill:#455a64"
           id="path1070" />
        <path
           d="m 263.78,156.66 a 1.88,1.88 0 0 0 0.22,1.07 q 0.22,0.3 0.72,0 l 1.76,-1 a 0.31,0.31 0 0 1 0.41,0 0.7,0.7 0 0 1 0.18,0.54 v 3.41 a 1.68,1.68 0 0 1 -0.18,0.74 1,1 0 0 1 -0.41,0.51 l -2.08,1.2 a 4.13,4.13 0 0 1 -1.88,0.63 2,2 0 0 1 -1.44,-0.49 3.35,3.35 0 0 1 -0.92,-1.56 9,9 0 0 1 -0.33,-2.59 v -5.67 l -1.62,0.93 a 0.29,0.29 0 0 1 -0.41,0 0.7,0.7 0 0 1 -0.18,-0.54 v -3.41 a 1.71,1.71 0 0 1 0.18,-0.74 1.09,1.09 0 0 1 0.41,-0.51 l 1.62,-0.94 v -5.5 A 1.71,1.71 0 0 1 260,142 a 1.11,1.11 0 0 1 0.42,-0.51 l 2.76,-1.59 a 0.32,0.32 0 0 1 0.42,0 0.78,0.78 0 0 1 0.17,0.54 V 146 l 2.48,-1.43 a 0.31,0.31 0 0 1 0.42,0 0.74,0.74 0 0 1 0.17,0.54 v 3.4 a 1.86,1.86 0 0 1 -0.17,0.75 1.16,1.16 0 0 1 -0.42,0.51 l -2.48,1.43 z"
           style="fill:#455a64"
           id="path1072" />
        <path
           d="m 275.82,156.9 a 3.52,3.52 0 0 1 -1.12,0.44 1.88,1.88 0 0 1 -0.83,0 1.43,1.43 0 0 1 -0.6,-0.31 3,3 0 0 1 -0.39,-0.43 v 7.19 a 1.71,1.71 0 0 1 -0.18,0.74 1,1 0 0 1 -0.41,0.51 l -2.77,1.6 a 0.31,0.31 0 0 1 -0.41,0 0.69,0.69 0 0 1 -0.18,-0.53 v -22.22 a 1.71,1.71 0 0 1 0.18,-0.74 1.1,1.1 0 0 1 0.41,-0.51 l 2.66,-1.53 a 0.31,0.31 0 0 1 0.41,0 0.7,0.7 0 0 1 0.18,0.54 v 0.77 c 0.13,-0.3 0.27,-0.61 0.43,-0.95 a 5.5,5.5 0 0 1 0.57,-1 5.94,5.94 0 0 1 0.83,-0.95 6,6 0 0 1 1.22,-0.89 4.17,4.17 0 0 1 1.86,-0.62 2,2 0 0 1 1.53,0.53 4.08,4.08 0 0 1 1.07,1.8 11.1,11.1 0 0 1 0.45,3.18 c 0,0.33 0,0.78 0,1.36 0,0.58 0,1 0,1.38 a 17.51,17.51 0 0 1 -0.45,3.7 14.55,14.55 0 0 1 -1.07,3 9.73,9.73 0 0 1 -1.53,2.32 7.78,7.78 0 0 1 -1.86,1.62 z m 1,-8.74 a 11.92,11.92 0 0 0 0,-1.89 3.41,3.41 0 0 0 -0.5,-1.77 c -0.29,-0.41 -0.78,-0.43 -1.47,0 a 3,3 0 0 0 -0.83,0.72 3.9,3.9 0 0 0 -0.58,1 5.89,5.89 0 0 0 -0.37,1.07 8.08,8.08 0 0 0 -0.17,1.08 c 0,0.35 0,0.75 0,1.21 0,0.46 0,0.83 0,1.15 a 4.58,4.58 0 0 0 0.17,0.88 1.79,1.79 0 0 0 0.37,0.65 0.84,0.84 0 0 0 0.58,0.29 1.44,1.44 0 0 0 0.83,-0.25 3.27,3.27 0 0 0 1.47,-1.72 7.53,7.53 0 0 0 0.48,-2.42 z"
           style="fill:#455a64"
           id="path1074" />
        <path
           d="m 286.82,137.48 a 1.78,1.78 0 0 1 -0.17,0.74 1.11,1.11 0 0 1 -0.42,0.51 l -2.87,1.66 a 0.33,0.33 0 0 1 -0.42,0 0.7,0.7 0 0 1 -0.17,-0.54 v -4.45 a 1.66,1.66 0 0 1 0.17,-0.74 1.11,1.11 0 0 1 0.42,-0.51 l 2.87,-1.66 a 0.33,0.33 0 0 1 0.42,0 0.74,0.74 0 0 1 0.17,0.54 z m 0,11.82 a 1.85,1.85 0 0 1 -0.17,0.74 1.11,1.11 0 0 1 -0.42,0.51 l -2.87,1.66 a 0.33,0.33 0 0 1 -0.42,0 0.73,0.73 0 0 1 -0.17,-0.54 v -4.43 a 1.69,1.69 0 0 1 0.17,-0.74 1.11,1.11 0 0 1 0.42,-0.51 l 2.87,-1.66 a 0.33,0.33 0 0 1 0.42,0 0.78,0.78 0 0 1 0.17,0.54 z"
           style="fill:#455a64"
           id="path1076" />
        <path
           d="m 295.94,119.42 a 4.13,4.13 0 0 1 0.33,-0.88 1.59,1.59 0 0 1 0.64,-0.69 l 2.71,-1.57 a 0.27,0.27 0 0 1 0.34,0 0.57,0.57 0 0 1 0.15,0.44 1.56,1.56 0 0 1 -0.05,0.33 l -7.38,31.57 a 4.7,4.7 0 0 1 -0.31,0.85 1.64,1.64 0 0 1 -0.66,0.72 l -2.71,1.57 a 0.26,0.26 0 0 1 -0.34,0 0.57,0.57 0 0 1 -0.15,-0.44 1.56,1.56 0 0 1 0.05,-0.33 z"
           style="fill:#455a64"
           id="path1078" />
        <path
           d="m 303.46,115.08 a 4.13,4.13 0 0 1 0.33,-0.88 1.59,1.59 0 0 1 0.64,-0.69 l 2.72,-1.57 a 0.26,0.26 0 0 1 0.34,0 0.59,0.59 0 0 1 0.14,0.44 1.56,1.56 0 0 1 -0.05,0.33 l -7.38,31.57 a 5,5 0 0 1 -0.31,0.85 1.64,1.64 0 0 1 -0.66,0.72 l -2.67,1.54 a 0.26,0.26 0 0 1 -0.34,0 0.57,0.57 0 0 1 -0.15,-0.44 1.56,1.56 0 0 1 0.05,-0.33 z"
           style="fill:#455a64"
           id="path1080" />
        <path
           d="m 318,114.68 c 0.22,-0.13 0.39,-0.13 0.51,0 a 1,1 0 0 1 0.24,0.4 l 1.62,6.73 1.62,-8.6 a 4,4 0 0 1 0.24,-0.68 1.21,1.21 0 0 1 0.51,-0.56 l 2.72,-1.57 a 0.27,0.27 0 0 1 0.37,0 0.66,0.66 0 0 1 0.15,0.48 1.46,1.46 0 0 1 0,0.29 l -3.49,17.64 a 3.51,3.51 0 0 1 -0.22,0.7 1.24,1.24 0 0 1 -0.5,0.56 l -2.5,1.44 c -0.22,0.13 -0.38,0.13 -0.48,0 a 1.43,1.43 0 0 1 -0.24,-0.44 l -1.56,-6.18 -1.55,8 a 3.75,3.75 0 0 1 -0.25,0.71 1.08,1.08 0 0 1 -0.48,0.55 l -2.5,1.45 c -0.22,0.12 -0.38,0.13 -0.49,0 a 0.93,0.93 0 0 1 -0.23,-0.44 L 308,121.55 a 2.28,2.28 0 0 1 0,-0.26 1.4,1.4 0 0 1 0.16,-0.66 1,1 0 0 1 0.37,-0.46 l 2.72,-1.57 c 0.22,-0.12 0.38,-0.13 0.5,0 a 0.88,0.88 0 0 1 0.24,0.4 l 1.62,6.73 1.63,-8.6 a 2.94,2.94 0 0 1 0.24,-0.68 1.19,1.19 0 0 1 0.5,-0.56 z"
           style="fill:#455a64"
           id="path1082" />
        <path
           d="m 336.94,103.72 c 0.22,-0.13 0.39,-0.13 0.5,0 a 0.83,0.83 0 0 1 0.24,0.4 l 1.63,6.72 1.62,-8.59 a 2.65,2.65 0 0 1 0.24,-0.68 1.27,1.27 0 0 1 0.5,-0.57 l 2.72,-1.56 a 0.29,0.29 0 0 1 0.38,0 0.66,0.66 0 0 1 0.15,0.48 2.64,2.64 0 0 1 0,0.28 l -3.49,17.64 a 2.93,2.93 0 0 1 -0.23,0.71 1.17,1.17 0 0 1 -0.49,0.56 l -2.5,1.44 c -0.22,0.13 -0.38,0.13 -0.48,0 a 1.26,1.26 0 0 1 -0.25,-0.44 l -1.55,-6.19 -1.56,8 a 5,5 0 0 1 -0.24,0.71 1.12,1.12 0 0 1 -0.48,0.55 l -2.5,1.45 c -0.22,0.12 -0.39,0.13 -0.49,0 a 0.93,0.93 0 0 1 -0.23,-0.44 l -3.49,-13.62 a 2,2 0 0 1 0,-0.25 1.59,1.59 0 0 1 0.15,-0.67 1.07,1.07 0 0 1 0.37,-0.45 l 2.72,-1.57 c 0.22,-0.12 0.39,-0.13 0.51,0 a 1,1 0 0 1 0.24,0.4 l 1.62,6.73 1.62,-8.6 a 4,4 0 0 1 0.24,-0.68 1.26,1.26 0 0 1 0.51,-0.56 z"
           style="fill:#455a64"
           id="path1084" />
        <path
           d="m 355.92,92.76 c 0.22,-0.13 0.39,-0.13 0.51,0 a 0.86,0.86 0 0 1 0.24,0.4 l 1.62,6.72 1.62,-8.6 a 3.3,3.3 0 0 1 0.25,-0.67 1.21,1.21 0 0 1 0.5,-0.57 l 2.72,-1.57 a 0.3,0.3 0 0 1 0.37,0 0.68,0.68 0 0 1 0.15,0.49 1.37,1.37 0 0 1 0,0.28 l -3.48,17.64 a 3.45,3.45 0 0 1 -0.23,0.71 1.17,1.17 0 0 1 -0.5,0.55 l -2.5,1.45 c -0.22,0.13 -0.38,0.13 -0.48,0 a 1.55,1.55 0 0 1 -0.24,-0.44 l -1.58,-6.15 -1.55,8 a 5,5 0 0 1 -0.24,0.71 1.19,1.19 0 0 1 -0.49,0.55 l -2.5,1.44 c -0.21,0.13 -0.38,0.14 -0.49,0 a 1.09,1.09 0 0 1 -0.23,-0.44 l -3.48,-13.62 a 1,1 0 0 1 0,-0.25 1.47,1.47 0 0 1 0.16,-0.67 1,1 0 0 1 0.37,-0.45 l 2.72,-1.57 c 0.22,-0.13 0.38,-0.13 0.5,0 a 0.83,0.83 0 0 1 0.24,0.4 l 1.62,6.73 1.63,-8.6 a 2.79,2.79 0 0 1 0.24,-0.68 1.19,1.19 0 0 1 0.5,-0.56 z"
           style="fill:#455a64"
           id="path1086" />
        <path
           d="m 368.75,102 a 1.72,1.72 0 0 1 -0.18,0.75 1.14,1.14 0 0 1 -0.41,0.51 l -2.87,1.65 a 0.32,0.32 0 0 1 -0.42,0 0.73,0.73 0 0 1 -0.18,-0.54 v -4.46 a 1.71,1.71 0 0 1 0.18,-0.74 1.05,1.05 0 0 1 0.42,-0.51 L 368.16,97 a 0.31,0.31 0 0 1 0.41,0 0.7,0.7 0 0 1 0.18,0.54 z"
           style="fill:#455a64"
           id="path1088" />
      </g>
      <g
         id="freepik--World--inject-26">
        <g
           id="freepik--Check--inject-26">
          <g
             id="freepik--Circle--inject-26">
            <path
               d="m 207.44,137.15 v 0 l -0.08,-0.05 v 0 l -20,-11.88 v 0 l -0.11,-0.07 v 0 c -8.81,-5.32 -20.57,-4.48 -33.21,3.78 -25.41,16.59 -44.77,56.82 -43.24,89.86 0.76,16.47 6.56,28.05 15.34,33.46 v 0 l 0.08,0.05 v 0 l 20,11.88 v 0 l 0.09,0.06 v 0 c 8.81,5.33 20.58,4.5 33.24,-3.77 25.4,-16.58 44.76,-56.82 43.24,-89.86 -0.79,-16.47 -6.57,-28.04 -15.35,-33.46 z"
               style="fill:#37474f"
               id="path1091" />
            <path
               d="M 145.57,263.78 126.2,252.3 v 0 l -0.08,-0.07 c -8.78,-5.42 -14.58,-17 -15.34,-33.44 -0.68,-14.74 2.8,-30.89 9.1,-45.74 l 0.13,-0.33 19.88,12.21 c -6.31,14.84 -9.78,31 -9.1,45.74 0.73,16.12 6.31,27.55 14.78,33.11 z"
               style="fill:#263238"
               id="path1093" />
            <path
               d="m 179.55,260.47 c 25.4,-16.58 44.76,-56.82 43.24,-89.86 -1.52,-33.04 -23.36,-46.39 -48.76,-29.8 -25.4,16.59 -44.77,56.83 -43.24,89.87 1.53,33.04 23.35,46.38 48.76,29.79 z"
               style="fill:#455a64"
               id="path1095" />
          </g>
        </g>
        <path
           d="m 165.21,251.75 a 18.68,18.68 0 0 1 -9.47,-2.48 c -8,-4.6 -12.59,-15.15 -12.59,-29 0,-25.39 15.43,-55 34.4,-66.06 8.62,-5 17,-5.66 23.73,-1.82 8,4.6 12.59,15.16 12.59,29 0,25.38 -15.43,55 -34.4,66 a 28.61,28.61 0 0 1 -14.26,4.36 z M 191.8,153.8 a 24.86,24.86 0 0 0 -12.33,3.77 C 161.55,168 147,196.14 147,220.32 c 0,12.39 3.89,21.73 10.68,25.64 5.44,3.13 12.51,2.48 19.9,-1.82 17.92,-10.42 32.5,-38.57 32.5,-62.74 0,-12.4 -3.89,-21.74 -10.68,-25.65 a 15,15 0 0 0 -7.6,-1.95 z"
           style="fill:#407bff"
           id="path1099" />
        <path
           d="m 165.2,188.27 a 18.17,18.17 0 0 1 -11.42,-3.93 l 1.77,-2.26 c 5.85,4.58 13.74,4.38 22.24,-0.56 8.8,-5.12 17.07,-14.61 23.29,-26.71 l 2.55,1.31 c -6.46,12.59 -15.13,22.49 -24.4,27.88 a 28.24,28.24 0 0 1 -14.03,4.27 z"
           style="fill:#407bff"
           id="path1101" />
        <path
           d="m 155.94,246.9 -2.55,-1.31 c 6.46,-12.58 15.13,-22.48 24.4,-27.88 9.58,-5.57 18.62,-5.69 25.45,-0.34 l -1.77,2.26 c -5.85,-4.58 -13.74,-4.38 -22.24,0.56 -8.8,5.12 -17.07,14.61 -23.29,26.71 z"
           style="fill:#407bff"
           id="path1103" />
        <path
           d="m 174.81,248.33 a 7.66,7.66 0 0 1 -3.88,-1.08 C 164.19,243.38 160,229.4 160,210.79 c 0,-25.67 7.82,-50.31 17.79,-56.11 a 7.9,7.9 0 0 1 8.3,-0.22 c 6.74,3.88 10.93,17.85 10.93,36.46 0,25.67 -7.82,50.31 -17.79,56.12 a 8.86,8.86 0 0 1 -4.42,1.29 z m 7.4,-92.08 a 5.83,5.83 0 0 0 -3,0.91 c -8.87,5.15 -16.36,29.71 -16.36,53.63 0,19.7 4.77,31.26 9.49,34 a 5.09,5.09 0 0 0 5.43,-0.21 c 8.87,-5.16 16.36,-29.72 16.36,-53.64 0,-19.7 -4.77,-31.26 -9.49,-34 a 4.87,4.87 0 0 0 -2.43,-0.69 z"
           style="fill:#407bff"
           id="path1105" />
        <rect
           x="177.08"
           y="155.92"
           width="2.8699999"
           height="89.879997"
           style="fill:#407bff"
           id="rect1107" />
        <rect
           x="139.81"
           y="199.42"
           width="77.400002"
           height="2.8699999"
           transform="matrix(0.86,-0.5,0.5,0.86,-76.8,117.03)"
           style="fill:#407bff"
           id="rect1109" />
      </g>
    </g>
  </g>
</svg>
